<?xml version="1.0" encoding="UTF-8"?>
<svg width="275" height="275" viewBox="0 0 275 275" version="1.1" xmlns="http://www.w3.org/2000/svg" xmlns:xlink="http://www.w3.org/1999/xlink">
 <path d="M103.64,-46.75 c2.44,0,4.66,0.63,6.65,1.89 c1.99,1.26,4.46,3.23,7.39,5.92 l44.07,40.28 l82.52,0 c12.13,0,22.34,2.16,30.64,6.47 c8.3,4.31,14.59,10.62,18.86,18.92 c4.27,8.3,6.41,18.43,6.41,30.4 l0,93.51 c0,11.96,-2.14,22.09,-6.41,30.4 c-4.27,8.3,-10.56,14.63,-18.86,18.98 c-8.3,4.35,-18.51,6.53,-30.64,6.53 l-157.23,0 c-12.13,0,-22.34,-2.18,-30.64,-6.53 c-8.3,-4.35,-14.59,-10.68,-18.86,-18.98 c-4.27,-8.3,-6.41,-18.43,-6.41,-30.4 l0,-93.51 c0,-11.96,2.14,-22.09,6.41,-30.4 c4.27,-8.3,10.56,-14.61,18.86,-18.92 c8.3,-4.31,18.51,-6.47,30.64,-6.47 l5.74,0 l0,-35.52 c0,-3.82,0.94,-6.88,2.81,-9.16 c1.87,-2.28,4.56,-3.42,8.06,-3.42 Z M145.37,38.5 c-2.41,0,-4.45,0.77,-6.1,2.32 c-1.66,1.54,-2.49,3.52,-2.49,5.93 c0,2.26,0.83,4.2,2.49,5.82 c1.66,1.62,3.69,2.43,6.1,2.43 l14.36,0 l0,53.24 l-12.43,0 c-2.34,0,-4.33,0.77,-5.99,2.32 c-1.66,1.54,-2.49,3.52,-2.49,5.93 c0,2.26,0.83,4.2,2.49,5.82 c1.66,1.62,3.65,2.43,5.99,2.43 l21.93,0 c3.01,0,5.29,-0.98,6.84,-2.94 c1.54,-1.96,2.32,-4.52,2.32,-7.69 l0,-59.12 l14.36,0 c2.41,0,4.45,-0.81,6.1,-2.43 c1.66,-1.62,2.49,-3.56,2.49,-5.82 c0,-2.41,-0.83,-4.39,-2.49,-5.93 c-1.66,-1.54,-3.69,-2.32,-6.1,-2.32 Z M164.7,144.08 c-4.22,0,-7.82,1.49,-10.8,4.47 c-2.98,2.98,-4.47,6.58,-4.47,10.8 c0,4.3,1.49,7.93,4.47,10.91 c2.98,2.98,6.58,4.47,10.8,4.47 c4.3,0,7.89,-1.49,10.8,-4.47 c2.9,-2.98,4.35,-6.61,4.35,-10.91 c0,-4.22,-1.45,-7.82,-4.35,-10.8 c-2.9,-2.98,-6.5,-4.47,-10.8,-4.47 Z M164.7,144.08" fill="rgb(0,0,0)" transform="matrix(1,0,0,-1,-28.1494140625,217.39501953125)"/>
</svg>