<?xml version="1.0" encoding="UTF-8"?>
<svg width="275" height="275" viewBox="0 0 275 275" version="1.1" xmlns="http://www.w3.org/2000/svg" xmlns:xlink="http://www.w3.org/1999/xlink">
 <path d="M146.36,-36.38 c17.01,0,33.02,3.26,48.03,9.77 c15.01,6.51,28.26,15.5,39.73,26.98 c11.47,11.47,20.47,24.72,26.98,39.73 c6.51,15.01,9.77,31.03,9.77,48.03 c0,17.01,-3.26,33.02,-9.77,48.03 c-6.51,15.01,-15.5,28.26,-26.98,39.73 c-11.47,11.47,-24.74,20.47,-39.79,26.98 c-15.06,6.51,-31.09,9.77,-48.1,9.77 c-17.01,0,-33.02,-3.26,-48.03,-9.77 c-15.01,-6.51,-28.24,-15.5,-39.67,-26.98 c-11.43,-11.47,-20.41,-24.72,-26.92,-39.73 c-6.51,-15.01,-9.77,-31.03,-9.77,-48.03 c0,-17.01,3.26,-33.02,9.77,-48.03 c6.51,-15.01,15.5,-28.26,26.98,-39.73 c11.47,-11.47,24.72,-20.47,39.73,-26.98 c15.01,-6.51,31.03,-9.77,48.03,-9.77 Z M124.39,17.58 c-2.6,0,-4.8,0.83,-6.59,2.5 c-1.79,1.67,-2.69,3.8,-2.69,6.41 c0,2.44,0.9,4.54,2.69,6.29 c1.79,1.75,3.99,2.62,6.59,2.62 l15.5,0 l0,57.5 l-13.43,0 c-2.52,0,-4.68,0.83,-6.47,2.5 c-1.79,1.67,-2.69,3.8,-2.69,6.41 c0,2.44,0.9,4.54,2.69,6.29 c1.79,1.75,3.95,2.62,6.47,2.62 l23.68,0 c3.26,0,5.72,-1.06,7.39,-3.17 c1.67,-2.12,2.5,-4.88,2.5,-8.3 l0,-63.84 l15.5,0 c2.6,0,4.8,-0.87,6.59,-2.62 c1.79,-1.75,2.69,-3.85,2.69,-6.29 c0,-2.6,-0.9,-4.74,-2.69,-6.41 c-1.79,-1.67,-3.99,-2.5,-6.59,-2.5 Z M145.26,131.59 c-4.56,0,-8.44,1.61,-11.66,4.82 c-3.21,3.21,-4.82,7.1,-4.82,11.66 c0,4.64,1.61,8.57,4.82,11.78 c3.21,3.21,7.1,4.82,11.66,4.82 c4.64,0,8.52,-1.61,11.66,-4.82 c3.13,-3.21,4.7,-7.14,4.7,-11.78 c0,-4.56,-1.57,-8.44,-4.7,-11.66 c-3.13,-3.21,-7.02,-4.82,-11.66,-4.82 Z M145.26,131.59" fill="rgb(0,0,0)" transform="matrix(1,0,0,-1,-8.8623046875,225.634765625)"/>
</svg>