<?xml version="1.0" encoding="UTF-8"?>
<svg width="275" height="275" viewBox="0 0 275 275" version="1.1" xmlns="http://www.w3.org/2000/svg" xmlns:xlink="http://www.w3.org/1999/xlink">
 <path d="M146.36,-36.38 c17.01,0,33.02,3.26,48.03,9.77 c15.01,6.51,28.26,15.5,39.73,26.98 c11.47,11.47,20.47,24.72,26.98,39.73 c6.51,15.01,9.77,31.03,9.77,48.03 c0,17.01,-3.26,33.02,-9.77,48.03 c-6.51,15.01,-15.5,28.26,-26.98,39.73 c-11.47,11.47,-24.74,20.47,-39.79,26.98 c-15.06,6.51,-31.09,9.77,-48.1,9.77 c-17.01,0,-33.02,-3.26,-48.03,-9.77 c-15.01,-6.51,-28.24,-15.5,-39.67,-26.98 c-11.43,-11.47,-20.41,-24.72,-26.92,-39.73 c-6.51,-15.01,-9.77,-31.03,-9.77,-48.03 c0,-17.01,3.26,-33.02,9.77,-48.03 c6.51,-15.01,15.5,-28.26,26.98,-39.73 c11.47,-11.47,24.72,-20.47,39.73,-26.98 c15.01,-6.51,31.03,-9.77,48.03,-9.77 Z M146.36,-15.62 c-14.4,0,-27.87,2.69,-40.41,8.06 c-12.53,5.37,-23.54,12.8,-33.02,22.28 c-9.48,9.48,-16.89,20.49,-22.22,33.02 c-5.33,12.53,-8.0,26.0,-8.0,40.41 c0,14.4,2.67,27.87,8.0,40.41 c5.33,12.53,12.72,23.56,22.16,33.08 c9.44,9.52,20.43,16.95,32.96,22.28 c12.53,5.33,26.0,8.0,40.41,8.0 c14.4,0,27.89,-2.67,40.47,-8.0 c12.57,-5.33,23.6,-12.76,33.08,-22.28 c9.48,-9.52,16.91,-20.55,22.28,-33.08 c5.37,-12.53,8.06,-26.0,8.06,-40.41 c0,-14.4,-2.67,-27.87,-8.0,-40.41 c-5.33,-12.53,-12.76,-23.54,-22.28,-33.02 c-9.52,-9.48,-20.55,-16.91,-33.08,-22.28 c-12.53,-5.37,-26.0,-8.06,-40.41,-8.06 Z M125,19.9 l49.68,0 c2.52,0,4.64,0.81,6.35,2.44 c1.71,1.63,2.56,3.66,2.56,6.1 c0,2.44,-0.85,4.48,-2.56,6.1 c-1.71,1.63,-3.82,2.44,-6.35,2.44 l-15.14,0 l0,62.13 c0,3.34,-0.81,6.0,-2.44,8.0 c-1.63,1.99,-3.99,2.99,-7.08,2.99 l-22.95,0 c-2.52,0,-4.64,-0.81,-6.35,-2.44 c-1.71,-1.63,-2.56,-3.66,-2.56,-6.1 c0,-2.44,0.85,-4.48,2.56,-6.1 c1.71,-1.63,3.82,-2.44,6.35,-2.44 l13.06,0 l0,-56.03 l-15.14,0 c-2.52,0,-4.64,-0.81,-6.35,-2.44 c-1.71,-1.63,-2.56,-3.66,-2.56,-6.1 c0,-2.44,0.85,-4.48,2.56,-6.1 c1.71,-1.63,3.82,-2.44,6.35,-2.44 Z M145.26,130.49 c4.48,0,8.24,1.55,11.29,4.64 c3.05,3.09,4.58,6.84,4.58,11.23 c0,4.48,-1.53,8.26,-4.58,11.35 c-3.05,3.09,-6.82,4.64,-11.29,4.64 c-4.39,0,-8.14,-1.55,-11.23,-4.64 c-3.09,-3.09,-4.64,-6.88,-4.64,-11.35 c0,-4.39,1.55,-8.14,4.64,-11.23 c3.09,-3.09,6.84,-4.64,11.23,-4.64 Z M145.26,130.49" fill="rgb(0,0,0)" transform="matrix(1,0,0,-1,-8.8623046875,225.634765625)"/>
</svg>