<?xml version="1.0" encoding="UTF-8"?>
<svg width="275" height="275" viewBox="0 0 275 275" version="1.1" xmlns="http://www.w3.org/2000/svg" xmlns:xlink="http://www.w3.org/1999/xlink">
 <path d="M146.36,-36.38 c17.01,0,33.02,3.26,48.03,9.77 c15.01,6.51,28.26,15.5,39.73,26.98 c11.47,11.47,20.47,24.72,26.98,39.73 c6.51,15.01,9.77,31.03,9.77,48.03 c0,17.01,-3.26,33.02,-9.77,48.03 c-6.51,15.01,-15.5,28.26,-26.98,39.73 c-11.47,11.47,-24.74,20.47,-39.79,26.98 c-15.06,6.51,-31.09,9.77,-48.1,9.77 c-17.01,0,-33.02,-3.26,-48.03,-9.77 c-15.01,-6.51,-28.24,-15.5,-39.67,-26.98 c-11.43,-11.47,-20.41,-24.72,-26.92,-39.73 c-6.51,-15.01,-9.77,-31.03,-9.77,-48.03 c0,-17.01,3.26,-33.02,9.77,-48.03 c6.51,-15.01,15.5,-28.26,26.98,-39.73 c11.47,-11.47,24.72,-20.47,39.73,-26.98 c15.01,-6.51,31.03,-9.77,48.03,-9.77 Z M146.36,-15.62 c-14.4,0,-27.87,2.69,-40.41,8.06 c-12.53,5.37,-23.54,12.8,-33.02,22.28 c-9.48,9.48,-16.89,20.49,-22.22,33.02 c-5.33,12.53,-8.0,26.0,-8.0,40.41 c0,14.4,2.67,27.87,8.0,40.41 c5.33,12.53,12.72,23.56,22.16,33.08 c9.44,9.52,20.43,16.95,32.96,22.28 c12.53,5.33,26.0,8.0,40.41,8.0 c14.4,0,27.89,-2.67,40.47,-8.0 c12.57,-5.33,23.6,-12.76,33.08,-22.28 c9.48,-9.52,16.91,-20.55,22.28,-33.08 c5.37,-12.53,8.06,-26.0,8.06,-40.41 c0,-14.4,-2.67,-27.87,-8.0,-40.41 c-5.33,-12.53,-12.76,-23.54,-22.28,-33.02 c-9.52,-9.48,-20.55,-16.91,-33.08,-22.28 c-12.53,-5.37,-26.0,-8.06,-40.41,-8.06 Z M143.92,62.87 c3.01,0,5.39,0.85,7.14,2.56 c1.75,1.71,2.62,3.74,2.62,6.1 c0,0.24,0,0.51,0,0.79 c0,0.28,0,0.51,0,0.67 c0,3.42,1.02,6.37,3.05,8.85 c2.03,2.48,5.21,5.15,9.52,8.0 c5.86,3.91,10.7,7.98,14.53,12.21 c3.82,4.23,5.74,10.01,5.74,17.33 c0,6.75,-1.81,12.45,-5.43,17.09 c-3.62,4.64,-8.36,8.16,-14.22,10.56 c-5.86,2.4,-12.25,3.6,-19.17,3.6 c-10.5,0,-19.06,-2.14,-25.7,-6.41 c-6.63,-4.27,-10.8,-9.22,-12.51,-14.83 c-0.33,-0.98,-0.57,-1.95,-0.73,-2.93 c-0.16,-0.98,-0.24,-1.99,-0.24,-3.05 c0,-2.77,0.9,-4.86,2.69,-6.29 c1.79,-1.42,3.7,-2.14,5.74,-2.14 c2.03,0,3.76,0.45,5.19,1.34 c1.42,0.9,2.67,2.08,3.72,3.54 l2.2,2.93 c1.46,2.36,3.13,4.37,5.0,6.04 c1.87,1.67,3.97,2.95,6.29,3.85 c2.32,0.9,4.82,1.34,7.51,1.34 c5.62,0,10.09,-1.44,13.43,-4.33 c3.34,-2.89,5.0,-6.65,5.0,-11.29 c0,-4.15,-1.3,-7.55,-3.91,-10.19 c-2.6,-2.64,-6.59,-5.84,-11.96,-9.58 c-4.39,-3.01,-8.04,-6.35,-10.93,-10.01 c-2.89,-3.66,-4.33,-8.5,-4.33,-14.53 c0,-0.24,0,-0.51,0,-0.79 c0,-0.28,0,-0.55,0,-0.79 c0,-6.43,3.26,-9.64,9.77,-9.64 Z M143.55,26.49 c3.58,0,6.67,1.22,9.28,3.66 c2.6,2.44,3.91,5.45,3.91,9.03 c0,3.58,-1.3,6.59,-3.91,9.03 c-2.6,2.44,-5.7,3.66,-9.28,3.66 c-3.58,0,-6.65,-1.24,-9.22,-3.72 c-2.56,-2.48,-3.85,-5.47,-3.85,-8.97 c0,-3.5,1.3,-6.49,3.91,-8.97 c2.6,-2.48,5.66,-3.72,9.16,-3.72 Z M143.55,26.49" fill="rgb(0,0,0)" transform="matrix(1,0,0,-1,-8.8623046875,225.634765625)"/>
</svg>