<?xml version="1.0" encoding="UTF-8"?>
<svg width="275" height="275" viewBox="0 0 275 275" version="1.1" xmlns="http://www.w3.org/2000/svg" xmlns:xlink="http://www.w3.org/1999/xlink">
 <path d="M69.46,-40.65 l140.01,0 c12.78,0,22.36,3.17,28.75,9.52 c6.39,6.35,9.58,15.79,9.58,28.32 l0,121.83 c0,12.53,-3.19,21.97,-9.58,28.32 c-6.39,6.35,-15.97,9.52,-28.75,9.52 l-34.06,0 l0,-19.65 l33.69,0 c6.02,0,10.7,-1.63,14.04,-4.88 c3.34,-3.26,5.0,-8.06,5.0,-14.4 l0,-119.63 c0,-6.35,-1.67,-11.15,-5.0,-14.4 c-3.34,-3.26,-8.02,-4.88,-14.04,-4.88 l-139.4,0 c-6.1,0,-10.78,1.63,-14.04,4.88 c-3.26,3.26,-4.88,8.06,-4.88,14.4 l0,119.63 c0,6.35,1.63,11.15,4.88,14.4 c3.26,3.26,7.93,4.88,14.04,4.88 l33.81,0 l0,19.65 l-34.06,0 c-12.78,0,-22.36,-3.15,-28.75,-9.46 c-6.39,-6.31,-9.58,-15.77,-9.58,-28.38 l0,-121.83 c0,-12.61,3.19,-22.07,9.58,-28.38 c6.39,-6.31,15.97,-9.46,28.75,-9.46 Z M139.4,39.67 c1.3,0,2.5,0.22,3.6,0.67 c1.1,0.45,2.26,1.28,3.48,2.5 l41.26,39.92 c1.95,1.87,2.93,3.99,2.93,6.35 c0,2.52,-0.85,4.58,-2.56,6.16 c-1.71,1.59,-3.82,2.38,-6.35,2.38 c-2.69,0,-4.88,-0.98,-6.59,-2.93 l-18.55,-19.65 l-8.18,-8.67 l0.73,18.31 l0,128.66 c0,2.6,-0.96,4.84,-2.87,6.71 c-1.91,1.87,-4.21,2.81,-6.9,2.81 c-2.6,0,-4.86,-0.94,-6.77,-2.81 c-1.91,-1.87,-2.87,-4.11,-2.87,-6.71 l0,-128.66 l0.73,-18.31 l-8.3,8.67 l-18.43,19.65 c-1.71,1.95,-3.95,2.93,-6.71,2.93 c-2.6,0,-4.72,-0.79,-6.35,-2.38 c-1.63,-1.59,-2.44,-3.64,-2.44,-6.16 c0,-2.36,0.94,-4.48,2.81,-6.35 l41.26,-39.92 c1.3,-1.22,2.5,-2.05,3.6,-2.5 c1.1,-0.45,2.26,-0.67,3.48,-0.67 Z M139.4,39.67" fill="rgb(0,0,0)" transform="matrix(1,0,0,-1,-1.96533203125,228.62548828125)"/>
</svg>