<?xml version="1.0" encoding="UTF-8"?>
<svg width="275" height="275" viewBox="0 0 275 275" version="1.1" xmlns="http://www.w3.org/2000/svg" xmlns:xlink="http://www.w3.org/1999/xlink">
 <path d="M114.5,-31.98 c-1.14,0,-2.1,0.35,-2.87,1.04 c-0.77,0.69,-1.2,1.57,-1.28,2.62 c-1.14,8.14,-2.26,14.49,-3.36,19.04 c-1.1,4.56,-2.85,8.0,-5.25,10.31 c-2.4,2.32,-6.0,4.13,-10.8,5.43 c-4.8,1.3,-11.39,2.73,-19.78,4.27 c-2.52,0.49,-3.78,1.87,-3.78,4.15 c0,1.14,0.37,2.08,1.1,2.81 c0.73,0.73,1.63,1.18,2.69,1.34 c8.38,1.14,14.97,2.3,19.78,3.48 c4.8,1.18,8.4,2.97,10.8,5.37 c2.4,2.4,4.17,5.94,5.31,10.62 c1.14,4.68,2.24,11.17,3.3,19.47 c0.33,2.52,1.71,3.78,4.15,3.78 c2.44,0,3.78,-1.3,4.03,-3.91 c1.06,-8.14,2.14,-14.49,3.23,-19.04 c1.1,-4.56,2.89,-7.98,5.37,-10.25 c2.48,-2.28,6.12,-4.05,10.93,-5.31 c4.8,-1.26,11.35,-2.67,19.65,-4.21 c2.52,-0.49,3.78,-1.87,3.78,-4.15 c0,-2.28,-1.42,-3.66,-4.27,-4.15 c-8.3,-1.3,-14.81,-2.56,-19.53,-3.78 c-4.72,-1.22,-8.28,-3.01,-10.68,-5.37 c-2.4,-2.36,-4.15,-5.86,-5.25,-10.5 c-1.1,-4.64,-2.18,-11.03,-3.23,-19.17 c-0.24,-2.6,-1.59,-3.91,-4.03,-3.91 Z M56.52,74.34 c-0.9,0,-1.59,0.26,-2.08,0.79 c-0.49,0.53,-0.81,1.2,-0.98,2.01 c-1.06,5.78,-2.03,10.36,-2.93,13.73 c-0.9,3.38,-2.2,5.98,-3.91,7.81 c-1.71,1.83,-4.27,3.23,-7.69,4.21 c-3.42,0.98,-8.18,1.99,-14.28,3.05 c-1.87,0.33,-2.81,1.34,-2.81,3.05 c0,1.71,0.94,2.73,2.81,3.05 c6.1,1.06,10.86,2.1,14.28,3.11 c3.42,1.02,5.98,2.42,7.69,4.21 c1.71,1.79,3.01,4.37,3.91,7.75 c0.9,3.38,1.87,8.0,2.93,13.85 c0.33,1.79,1.34,2.69,3.05,2.69 c1.63,0,2.6,-0.9,2.93,-2.69 c1.06,-5.86,2.03,-10.48,2.93,-13.85 c0.9,-3.38,2.2,-5.96,3.91,-7.75 c1.71,-1.79,4.27,-3.19,7.69,-4.21 c3.42,-1.02,8.22,-2.05,14.4,-3.11 c1.87,-0.33,2.81,-1.34,2.81,-3.05 c0,-1.71,-0.94,-2.73,-2.81,-3.05 c-6.18,-1.06,-10.99,-2.08,-14.4,-3.05 c-3.42,-0.98,-5.98,-2.38,-7.69,-4.21 c-1.71,-1.83,-3.01,-4.44,-3.91,-7.81 c-0.9,-3.38,-1.87,-7.95,-2.93,-13.73 c-0.33,-1.87,-1.3,-2.81,-2.93,-2.81 Z M123.41,152.47 c-1.38,0,-2.24,0.73,-2.56,2.2 c-0.98,4.88,-1.87,8.73,-2.69,11.54 c-0.81,2.81,-1.93,4.96,-3.36,6.47 c-1.42,1.51,-3.54,2.69,-6.35,3.54 c-2.81,0.85,-6.77,1.81,-11.9,2.87 c-1.55,0.24,-2.32,1.06,-2.32,2.44 c0,1.38,0.77,2.24,2.32,2.56 c5.13,1.06,9.09,2.01,11.9,2.87 c2.81,0.85,4.92,2.03,6.35,3.54 c1.42,1.51,2.54,3.64,3.36,6.41 c0.81,2.77,1.71,6.59,2.69,11.47 c0.33,1.55,1.18,2.32,2.56,2.32 c1.3,0,2.12,-0.77,2.44,-2.32 c1.06,-4.88,1.97,-8.71,2.75,-11.47 c0.77,-2.77,1.87,-4.9,3.3,-6.41 c1.42,-1.51,3.56,-2.69,6.41,-3.54 c2.85,-0.85,6.8,-1.81,11.84,-2.87 c1.55,-0.33,2.32,-1.18,2.32,-2.56 c0,-1.38,-0.77,-2.2,-2.32,-2.44 c-5.05,-1.06,-8.99,-2.01,-11.84,-2.87 c-2.85,-0.85,-4.98,-2.03,-6.41,-3.54 c-1.42,-1.51,-2.52,-3.66,-3.3,-6.47 c-0.77,-2.81,-1.69,-6.65,-2.75,-11.54 c-0.33,-1.46,-1.14,-2.2,-2.44,-2.2 Z M224.24,109.38 c-1.71,0,-2.73,0.9,-3.05,2.69 c-1.06,5.86,-2.03,10.48,-2.93,13.85 c-0.9,3.38,-2.2,5.96,-3.91,7.75 c-1.71,1.79,-4.27,3.19,-7.69,4.21 c-3.42,1.02,-8.18,2.05,-14.28,3.11 c-1.87,0.33,-2.81,1.34,-2.81,3.05 c0,0.81,0.26,1.49,0.79,2.01 c0.53,0.53,1.2,0.87,2.01,1.04 c6.1,1.06,10.86,2.08,14.28,3.05 c3.42,0.98,5.98,2.38,7.69,4.21 c1.71,1.83,3.01,4.44,3.91,7.81 c0.9,3.38,1.87,7.95,2.93,13.73 c0.33,1.87,1.34,2.81,3.05,2.81 c1.63,0,2.6,-0.94,2.93,-2.81 c1.06,-5.78,2.03,-10.36,2.93,-13.73 c0.9,-3.38,2.2,-5.98,3.91,-7.81 c1.71,-1.83,4.29,-3.23,7.75,-4.21 c3.46,-0.98,8.24,-1.99,14.34,-3.05 c1.87,-0.33,2.81,-1.34,2.81,-3.05 c0,-1.71,-0.94,-2.73,-2.81,-3.05 c-6.1,-1.06,-10.88,-2.1,-14.34,-3.11 c-3.46,-1.02,-6.04,-2.42,-7.75,-4.21 c-1.71,-1.79,-3.01,-4.37,-3.91,-7.75 c-0.9,-3.38,-1.87,-8.0,-2.93,-13.85 c-0.33,-1.79,-1.3,-2.69,-2.93,-2.69 Z M264.89,-30.03 l-115.97,116.33 c-2.52,2.6,-3.78,5.74,-3.78,9.4 c0,3.66,1.26,6.84,3.78,9.52 c2.44,2.6,5.55,3.91,9.34,3.91 c3.78,0,6.94,-1.3,9.46,-3.91 l116.09,-116.46 c2.44,-2.6,3.68,-5.72,3.72,-9.34 c0.04,-3.62,-1.2,-6.77,-3.72,-9.46 c-2.44,-2.6,-5.55,-3.91,-9.34,-3.91 c-3.78,0,-6.98,1.3,-9.58,3.91 Z M193.97,53.83 l6.1,5.86 l-35.89,35.89 c-1.14,1.14,-2.32,1.81,-3.54,2.01 c-1.22,0.2,-2.28,-0.18,-3.17,-1.16 c-1.06,-1.06,-1.49,-2.18,-1.28,-3.36 c0.2,-1.18,0.87,-2.3,2.01,-3.36 Z M193.97,53.83" fill="rgb(0,0,0)" transform="matrix(1,0,0,-1,-17.194087931010074,225.87890625)"/>
</svg>