<?xml version="1.0" encoding="UTF-8"?>
<!--Generator: Apple Native CoreSVG 175.5-->
<!DOCTYPE svg
PUBLIC "-//W3C//DTD SVG 1.1//EN"
       "http://www.w3.org/Graphics/SVG/1.1/DTD/svg11.dtd">
<svg version="1.1" xmlns="http://www.w3.org/2000/svg" xmlns:xlink="http://www.w3.org/1999/xlink" width="3300" height="2200">
 <!--glyph: "uni10005C.medium", point size: 100.0, font version: "18.0d12e2", template writer version: "101"-->
 <g id="Notes">
  <rect height="2200" id="artboard" style="fill:white;opacity:1" width="3300" x="0" y="0"/>
  <line style="fill:none;stroke:black;opacity:1;stroke-width:0.5;" x1="263" x2="3036" y1="292" y2="292"/>
  <text style="stroke:none;fill:black;font-family:sans-serif;font-size:13;font-weight:bold;" transform="matrix(1 0 0 1 263 322)">Weight/Scale Variations</text>
  <text style="stroke:none;fill:black;font-family:sans-serif;font-size:13;text-anchor:middle;" transform="matrix(1 0 0 1 559.711 322)">Ultralight</text>
  <text style="stroke:none;fill:black;font-family:sans-serif;font-size:13;text-anchor:middle;" transform="matrix(1 0 0 1 856.422 322)">Thin</text>
  <text style="stroke:none;fill:black;font-family:sans-serif;font-size:13;text-anchor:middle;" transform="matrix(1 0 0 1 1153.13 322)">Light</text>
  <text style="stroke:none;fill:black;font-family:sans-serif;font-size:13;text-anchor:middle;" transform="matrix(1 0 0 1 1449.84 322)">Regular</text>
  <text style="stroke:none;fill:black;font-family:sans-serif;font-size:13;text-anchor:middle;" transform="matrix(1 0 0 1 1746.56 322)">Medium</text>
  <text style="stroke:none;fill:black;font-family:sans-serif;font-size:13;text-anchor:middle;" transform="matrix(1 0 0 1 2043.27 322)">Semibold</text>
  <text style="stroke:none;fill:black;font-family:sans-serif;font-size:13;text-anchor:middle;" transform="matrix(1 0 0 1 2339.98 322)">Bold</text>
  <text style="stroke:none;fill:black;font-family:sans-serif;font-size:13;text-anchor:middle;" transform="matrix(1 0 0 1 2636.69 322)">Heavy</text>
  <text style="stroke:none;fill:black;font-family:sans-serif;font-size:13;text-anchor:middle;" transform="matrix(1 0 0 1 2933.4 322)">Black</text>
  <line style="fill:none;stroke:black;opacity:1;stroke-width:0.5;" x1="263" x2="3036" y1="1903" y2="1903"/>
  <g transform="matrix(1 0 0 1 263 1933)">
   <path d="M9.24805 0.830078C13.5547 0.830078 17.1387-2.74414 17.1387-7.05078C17.1387-11.3574 13.5449-14.9316 9.23828-14.9316C4.94141-14.9316 1.36719-11.3574 1.36719-7.05078C1.36719-2.74414 4.95117 0.830078 9.24805 0.830078ZM9.24805-0.654297C5.70312-0.654297 2.87109-3.49609 2.87109-7.05078C2.87109-10.6055 5.69336-13.4473 9.23828-13.4473C12.793-13.4473 15.6445-10.6055 15.6445-7.05078C15.6445-3.49609 12.8027-0.654297 9.24805-0.654297ZM5.6543-7.05078C5.6543-6.62109 5.95703-6.32812 6.40625-6.32812L8.50586-6.32812L8.50586-4.20898C8.50586-3.76953 8.79883-3.4668 9.22852-3.4668C9.67773-3.4668 9.9707-3.76953 9.9707-4.20898L9.9707-6.32812L12.0898-6.32812C12.5293-6.32812 12.832-6.62109 12.832-7.05078C12.832-7.49023 12.5293-7.79297 12.0898-7.79297L9.9707-7.79297L9.9707-9.90234C9.9707-10.3516 9.67773-10.6543 9.22852-10.6543C8.79883-10.6543 8.50586-10.3516 8.50586-9.90234L8.50586-7.79297L6.40625-7.79297C5.95703-7.79297 5.6543-7.49023 5.6543-7.05078Z"/>
  </g>
  <g transform="matrix(1 0 0 1 281.867 1933)">
   <path d="M11.709 2.91016C17.1582 2.91016 21.6699-1.61133 21.6699-7.05078C21.6699-12.5 17.1484-17.0117 11.6992-17.0117C6.25977-17.0117 1.74805-12.5 1.74805-7.05078C1.74805-1.61133 6.26953 2.91016 11.709 2.91016ZM11.709 1.25C7.09961 1.25 3.41797-2.44141 3.41797-7.05078C3.41797-11.6602 7.08984-15.3516 11.6992-15.3516C16.3086-15.3516 20.0098-11.6602 20.0098-7.05078C20.0098-2.44141 16.3184 1.25 11.709 1.25ZM7.17773-7.05078C7.17773-6.57227 7.50977-6.25 8.00781-6.25L10.8789-6.25L10.8789-3.36914C10.8789-2.88086 11.2109-2.53906 11.6895-2.53906C12.1777-2.53906 12.5195-2.87109 12.5195-3.36914L12.5195-6.25L15.4004-6.25C15.8887-6.25 16.2305-6.57227 16.2305-7.05078C16.2305-7.53906 15.8887-7.88086 15.4004-7.88086L12.5195-7.88086L12.5195-10.752C12.5195-11.25 12.1777-11.5918 11.6895-11.5918C11.2109-11.5918 10.8789-11.25 10.8789-10.752L10.8789-7.88086L8.00781-7.88086C7.50977-7.88086 7.17773-7.53906 7.17773-7.05078Z"/>
  </g>
  <g transform="matrix(1 0 0 1 305.646 1933)">
   <path d="M14.9707 5.66406C21.9336 5.66406 27.6953-0.0976562 27.6953-7.05078C27.6953-14.0137 21.9238-19.7754 14.9609-19.7754C8.00781-19.7754 2.25586-14.0137 2.25586-7.05078C2.25586-0.0976562 8.01758 5.66406 14.9707 5.66406ZM14.9707 3.84766C8.93555 3.84766 4.08203-1.01562 4.08203-7.05078C4.08203-13.0957 8.92578-17.9492 14.9609-17.9492C21.0059-17.9492 25.8691-13.0957 25.8691-7.05078C25.8691-1.01562 21.0156 3.84766 14.9707 3.84766ZM9.19922-7.05078C9.19922-6.5332 9.57031-6.17188 10.1172-6.17188L14.0625-6.17188L14.0625-2.2168C14.0625-1.67969 14.4336-1.29883 14.9512-1.29883C15.4883-1.29883 15.8594-1.66992 15.8594-2.2168L15.8594-6.17188L19.8145-6.17188C20.3516-6.17188 20.7324-6.5332 20.7324-7.05078C20.7324-7.59766 20.3613-7.96875 19.8145-7.96875L15.8594-7.96875L15.8594-11.9141C15.8594-12.4609 15.4883-12.8418 14.9512-12.8418C14.4336-12.8418 14.0625-12.4609 14.0625-11.9141L14.0625-7.96875L10.1172-7.96875C9.57031-7.96875 9.19922-7.59766 9.19922-7.05078Z"/>
  </g>
  <text style="stroke:none;fill:black;font-family:sans-serif;font-size:13;font-weight:bold;" transform="matrix(1 0 0 1 263 1953)">Design Variations</text>
  <text style="stroke:none;fill:black;font-family:sans-serif;font-size:13;" transform="matrix(1 0 0 1 263 1971)">Symbols are supported in up to nine weights and three scales.</text>
  <text style="stroke:none;fill:black;font-family:sans-serif;font-size:13;" transform="matrix(1 0 0 1 263 1989)">For optimal layout with text and other symbols, vertically align</text>
  <text style="stroke:none;fill:black;font-family:sans-serif;font-size:13;" transform="matrix(1 0 0 1 263 2007)">symbols with the adjacent text.</text>
  <line style="fill:none;stroke:#00AEEF;stroke-width:0.5;opacity:1.0;" x1="776" x2="776" y1="1919" y2="1933"/>
  <g transform="matrix(1 0 0 1 776 1933)">
   <path d="M3.31055 0.15625C3.82812 0.15625 4.08203-0.0390625 4.26758-0.585938L5.52734-4.0332L11.2891-4.0332L12.5488-0.585938C12.7344-0.0390625 12.9883 0.15625 13.4961 0.15625C14.0137 0.15625 14.3457-0.15625 14.3457-0.644531C14.3457-0.810547 14.3164-0.966797 14.2383-1.17188L9.6582-13.3691C9.43359-13.9648 9.0332-14.2676 8.4082-14.2676C7.80273-14.2676 7.39258-13.9746 7.17773-13.3789L2.59766-1.16211C2.51953-0.957031 2.49023-0.800781 2.49023-0.634766C2.49023-0.146484 2.80273 0.15625 3.31055 0.15625ZM6.00586-5.51758L8.37891-12.0898L8.42773-12.0898L10.8008-5.51758Z"/>
  </g>
  <line style="fill:none;stroke:#00AEEF;stroke-width:0.5;opacity:1.0;" x1="793.197" x2="793.197" y1="1919" y2="1933"/>
  <text style="stroke:none;fill:black;font-family:sans-serif;font-size:13;font-weight:bold;" transform="matrix(1 0 0 1 776 1953)">Margins</text>
  <text style="stroke:none;fill:black;font-family:sans-serif;font-size:13;" transform="matrix(1 0 0 1 776 1971)">Leading and trailing margins on the left and right side of each symbol</text>
  <text style="stroke:none;fill:black;font-family:sans-serif;font-size:13;" transform="matrix(1 0 0 1 776 1989)">can be adjusted by modifying the x-location of the margin guidelines.</text>
  <text style="stroke:none;fill:black;font-family:sans-serif;font-size:13;" transform="matrix(1 0 0 1 776 2007)">Modifications are automatically applied proportionally to all</text>
  <text style="stroke:none;fill:black;font-family:sans-serif;font-size:13;" transform="matrix(1 0 0 1 776 2025)">scales and weights.</text>
  <g transform="matrix(1 0 0 1 1289 1933)">
   <path d="M2.8418 1.86523L4.54102 3.57422C5.40039 4.44336 6.38672 4.38477 7.31445 3.35938L18.0078-8.42773L17.041-9.4043L6.42578 2.27539C6.07422 2.67578 5.74219 2.77344 5.27344 2.30469L4.10156 1.14258C3.63281 0.683594 3.74023 0.341797 4.14062-0.0195312L15.6152-10.8203L14.6387-11.7871L3.04688-0.898438C2.06055 0.0195312 1.98242 0.996094 2.8418 1.86523ZM9.25781-16.3281C8.83789-15.918 8.80859-15.3418 9.04297-14.9512C9.27734-14.5898 9.73633-14.3555 10.3809-14.5215C11.8457-14.8633 13.3691-14.9219 14.7949-13.9844L14.209-12.5293C13.8672-11.6992 14.043-11.1133 14.5801-10.5664L16.875-8.25195C17.3633-7.76367 17.7734-7.74414 18.3398-7.8418L19.4043-8.03711L20.0684-7.36328L20.0293-6.80664C19.9902-6.30859 20.1172-5.92773 20.6055-5.44922L21.3672-4.70703C21.8457-4.22852 22.4609-4.19922 22.9297-4.66797L25.8398-7.58789C26.3086-8.05664 26.2891-8.65234 25.8105-9.13086L25.0391-9.89258C24.5605-10.3711 24.1895-10.5273 23.7109-10.4883L23.1348-10.4395L22.4902-11.0742L22.7344-12.1973C22.8613-12.7637 22.7051-13.2031 22.1191-13.7891L19.9219-15.9766C16.582-19.2969 12.1484-19.2188 9.25781-16.3281ZM10.752-15.957C13.1836-17.7344 16.4746-17.4316 18.7012-15.2051L21.1328-12.793C21.3672-12.5586 21.4062-12.373 21.3379-12.0312L21.0156-10.5469L22.5195-9.0625L23.5059-9.12109C23.7598-9.13086 23.8379-9.11133 24.0332-8.91602L24.6094-8.33984L22.168-5.89844L21.5918-6.47461C21.3965-6.66992 21.3672-6.74805 21.377-7.01172L21.4453-7.98828L19.9512-9.47266L18.4277-9.21875C18.1055-9.15039 17.959-9.17969 17.7148-9.41406L15.7129-11.416C15.459-11.6504 15.4297-11.8164 15.5859-12.1875L16.4648-14.2773C14.9023-15.7324 12.8711-16.3574 10.8398-15.7617C10.6836-15.7227 10.625-15.8496 10.752-15.957Z"/>
  </g>
  <text style="stroke:none;fill:black;font-family:sans-serif;font-size:13;font-weight:bold;" transform="matrix(1 0 0 1 1289 1953)">Exporting</text>
  <text style="stroke:none;fill:black;font-family:sans-serif;font-size:13;" transform="matrix(1 0 0 1 1289 1971)">Symbols should be outlined when exporting to ensure the</text>
  <text style="stroke:none;fill:black;font-family:sans-serif;font-size:13;" transform="matrix(1 0 0 1 1289 1989)">design is preserved when submitting to Xcode.</text>
  <text id="template-version" style="stroke:none;fill:black;font-family:sans-serif;font-size:13;text-anchor:end;" transform="matrix(1 0 0 1 3036 1933)">Template v.4.0</text>
  <text style="stroke:none;fill:black;font-family:sans-serif;font-size:13;text-anchor:end;" transform="matrix(1 0 0 1 3036 1951)">Requires Xcode 14 or greater</text>
  <text id="descriptive-name" style="stroke:none;fill:black;font-family:sans-serif;font-size:13;text-anchor:end;" transform="matrix(1 0 0 1 3036 1969)">Generated from questionmark.circle</text>
  <text style="stroke:none;fill:black;font-family:sans-serif;font-size:13;text-anchor:end;" transform="matrix(1 0 0 1 3036 1987)">Typeset at 100 points</text>
  <text style="stroke:none;fill:black;font-family:sans-serif;font-size:13;" transform="matrix(1 0 0 1 263 726)">Small</text>
  <text style="stroke:none;fill:black;font-family:sans-serif;font-size:13;" transform="matrix(1 0 0 1 263 1156)">Medium</text>
  <text style="stroke:none;fill:black;font-family:sans-serif;font-size:13;" transform="matrix(1 0 0 1 263 1586)">Large</text>
 </g>
 <g id="Guides">
  <g id="H-reference" style="fill:#27AAE1;stroke:none;" transform="matrix(1 0 0 1 339 696)">
   <path d="M0.993654 0L3.63775 0L29.3281-67.1323L30.0303-67.1323L30.0303-70.459L28.1226-70.459ZM11.6885-24.4799L46.9815-24.4799L46.2315-26.7285L12.4385-26.7285ZM55.1196 0L57.7637 0L30.6382-70.459L29.4326-70.459L29.4326-67.1323Z"/>
  </g>
  <line id="Baseline-S" style="fill:none;stroke:#27AAE1;opacity:1;stroke-width:0.5;" x1="263" x2="3036" y1="696" y2="696"/>
  <line id="Capline-S" style="fill:none;stroke:#27AAE1;opacity:1;stroke-width:0.5;" x1="263" x2="3036" y1="625.541" y2="625.541"/>
  <g id="H-reference" style="fill:#27AAE1;stroke:none;" transform="matrix(1 0 0 1 339 1126)">
   <path d="M0.993654 0L3.63775 0L29.3281-67.1323L30.0303-67.1323L30.0303-70.459L28.1226-70.459ZM11.6885-24.4799L46.9815-24.4799L46.2315-26.7285L12.4385-26.7285ZM55.1196 0L57.7637 0L30.6382-70.459L29.4326-70.459L29.4326-67.1323Z"/>
  </g>
  <line id="Baseline-M" style="fill:none;stroke:#27AAE1;opacity:1;stroke-width:0.5;" x1="263" x2="3036" y1="1126" y2="1126"/>
  <line id="Capline-M" style="fill:none;stroke:#27AAE1;opacity:1;stroke-width:0.5;" x1="263" x2="3036" y1="1055.54" y2="1055.54"/>
  <g id="H-reference" style="fill:#27AAE1;stroke:none;" transform="matrix(1 0 0 1 339 1556)">
   <path d="M0.993654 0L3.63775 0L29.3281-67.1323L30.0303-67.1323L30.0303-70.459L28.1226-70.459ZM11.6885-24.4799L46.9815-24.4799L46.2315-26.7285L12.4385-26.7285ZM55.1196 0L57.7637 0L30.6382-70.459L29.4326-70.459L29.4326-67.1323Z"/>
  </g>
  <line id="Baseline-L" style="fill:none;stroke:#27AAE1;opacity:1;stroke-width:0.5;" x1="263" x2="3036" y1="1556" y2="1556"/>
  <line id="Capline-L" style="fill:none;stroke:#27AAE1;opacity:1;stroke-width:0.5;" x1="263" x2="3036" y1="1485.54" y2="1485.54"/>
  <line id="left-margin-Regular-M" style="fill:none;stroke:#00AEEF;stroke-width:0.5;opacity:1.0;" x1="1391.32" x2="1391.32" y1="1030.79" y2="1150.12"/>
  <line id="right-margin-Regular-M" style="fill:none;stroke:#00AEEF;stroke-width:0.5;opacity:1.0;" x1="1508.37" x2="1508.37" y1="1030.79" y2="1150.12"/>
 </g>
 <g id="Symbols">
  <g id="Black-L" transform="matrix(1 0 0 1 2854.19 1556)">
   <path d="M79.1958 32.7257C116.56 32.7257 147.154 2.15259 147.154-35.2113C147.154-72.5752 116.539-103.148 79.175-103.148C41.8307-103.148 11.2588-72.5752 11.2588-35.2113C11.2588 2.15259 41.8515 32.7257 79.1958 32.7257ZM79.1958 12.5782C52.765 12.5782 31.4468-8.75969 31.4468-35.2113C31.4468-61.6629 52.7442-83.0007 79.175-83.0007C105.627-83.0007 126.985-61.6629 126.985-35.2113C126.985-8.75969 105.647 12.5782 79.1958 12.5782ZM77.4454-24.2526C81.8997-24.2526 85.1581-26.3649 85.8589-29.2689C85.9173-29.4977 85.9757-29.7849 86.0342-29.9553C86.7934-32.3508 89.5793-34.2921 92.6865-36.2415C99.2909-40.346 102.21-43.8117 102.21-50.4536C102.21-61.0281 92.3077-68.1761 79.5232-68.1761C68.7984-68.1761 60.7984-63.9362 58.0686-57.7268C57.4961-56.4317 57.2-55.1985 57.2-53.7842C57.2-50.0353 60.094-46.9018 64.2748-46.9018C67.0747-46.9018 69.3292-47.8233 70.9084-49.9102L71.4375-50.5709C73.3707-53.162 75.2903-53.9525 77.5853-53.9525C80.539-53.9525 82.8516-51.8119 82.8516-49.3698C82.8516-46.2745 80.2438-44.7973 75.4849-41.5545C71.1267-38.5462 68.213-35.6382 68.213-31.448C68.213-31.3544 68.213-31.28 68.213-31.1876C68.213-26.632 71.4893-24.2526 77.4454-24.2526ZM77.461-3.18553C82.8158-3.18553 86.7732-6.30396 86.7732-11.384C86.7732-16.4288 82.8366-19.5824 77.461-19.5824C72.0657-19.5824 68.0112-16.4663 68.0112-11.384C68.0112-6.32477 72.0866-3.18553 77.461-3.18553Z"/>
  </g>
  <g id="Heavy-L" transform="matrix(1 0 0 1 2558.42 1556)">
   <path d="M78.2532 31.7694C115.056 31.7694 145.278 1.57794 145.278-35.2251C145.278-72.0281 115.026-102.22 78.2231-102.22C41.4446-102.22 11.2588-72.0281 11.2588-35.2251C11.2588 1.57794 41.4748 31.7694 78.2532 31.7694ZM78.2532 14.0275C51.0062 14.0275 29.0554-7.9479 29.0554-35.2251C29.0554-62.5023 50.9761-84.4777 78.2231-84.4777C105.5-84.4777 127.506-62.5023 127.506-35.2251C127.506-7.9479 105.53 14.0275 78.2532 14.0275ZM76.6264-23.7824C80.7238-23.7824 83.6363-25.8383 84.1718-28.6131C84.2164-28.8635 84.261-29.1585 84.3056-29.3642C84.8857-32.0338 87.4841-34.0435 90.9156-36.2393C97.408-40.3285 100.631-43.8493 100.631-50.6664C100.631-61.1436 90.9196-67.9332 78.6556-67.9332C67.932-67.9332 60.1681-63.4655 57.6975-57.3415C57.184-56.1098 56.915-54.9396 56.915-53.6074C56.915-50.1205 59.6158-47.3891 63.2805-47.3891C65.9044-47.3891 67.9262-48.3116 69.3708-50.2623L70.0178-51.095C71.9755-53.9938 74.2615-55.1788 77.0799-55.1788C80.749-55.1788 83.4212-52.747 83.4212-49.7243C83.4212-46.3489 80.8211-44.7085 75.862-41.3156C71.4464-38.2538 68.4507-35.2443 68.4507-30.6186C68.4507-30.4765 68.4507-30.3298 68.4507-30.1933C68.4507-25.9853 71.3531-23.7824 76.6264-23.7824ZM76.605-3.30599C81.5131-3.30599 85.2493-6.35817 85.2493-11.0565C85.2493-15.7516 81.5433-18.807 76.605-18.807C71.6422-18.807 67.8413-15.766 67.8413-11.0565C67.8413-6.38835 71.6724-3.30599 76.605-3.30599Z"/>
  </g>
  <g id="Bold-L" transform="matrix(1 0 0 1 2262.89 1556)">
   <path d="M77.0704 30.5711C113.182 30.5711 142.92 0.870872 142.92-35.2405C142.92-71.3519 113.144-101.052 77.0324-101.052C40.9458-101.052 11.2588-71.3519 11.2588-35.2405C11.2588 0.870872 40.9838 30.5711 77.0704 30.5711ZM77.0704 15.8255C48.8167 15.8255 26.0672-6.94878 26.0672-35.2405C26.0672-63.5322 48.7787-86.3065 77.0324-86.3065C105.324-86.3065 128.136-63.5322 128.136-35.2405C128.136-6.94878 105.362 15.8255 77.0704 15.8255ZM75.5897-23.2804C79.1969-23.2804 81.6717-25.2224 82.0221-27.7912C82.0513-28.0871 82.0805-28.4122 82.1097-28.6789C82.4894-31.6791 84.8646-33.7733 88.6883-36.2691C95.0797-40.3651 98.5602-43.9476 98.5602-50.883C98.5602-61.1255 89.1686-67.5142 77.5351-67.5142C66.8638-67.5142 59.4068-62.7623 57.2663-56.6936C56.8295-55.5463 56.5988-54.4678 56.5988-53.2356C56.5988-50.1088 59.0167-47.8619 62.0584-47.8619C64.4373-47.8619 66.1746-48.7695 67.4205-50.5437L68.1538-51.5393C70.0454-54.8521 72.8295-56.6257 76.3754-56.6257C80.9356-56.6257 84.061-53.8253 84.061-50.1102C84.061-46.4188 81.491-44.5635 76.2786-40.9788C71.7639-37.833 68.7353-34.7154 68.7353-29.6561C68.7353-29.4302 68.7353-29.1839 68.7353-28.9712C68.7353-25.2457 71.1766-23.2804 75.5897-23.2804ZM75.5297-3.56386C79.8846-3.56386 83.3144-6.50179 83.3144-10.7089C83.3144-14.9513 79.9226-17.8539 75.5297-17.8539C71.1122-17.8539 67.6487-14.9425 67.6487-10.7089C67.6487-6.53977 71.1501-3.56386 75.5297-3.56386Z"/>
  </g>
  <g id="Semibold-L" transform="matrix(1 0 0 1 1966.99 1556)">
   <path d="M76.2549 29.745C111.889 29.745 141.294 0.383422 141.294-35.2511C141.294-70.8857 111.846-100.247 76.2116-100.247C40.6019-100.247 11.2588-70.8857 11.2588-35.2511C11.2588 0.383422 40.6453 29.745 76.2549 29.745ZM76.2549 17.065C47.3072 17.065 24.0071-6.26 24.0071-35.2511C24.0071-64.2423 47.2638-87.5672 76.2116-87.5672C105.203-87.5672 128.571-64.2423 128.571-35.2511C128.571-6.26 105.246 17.065 76.2549 17.065ZM74.8751-22.9344C78.1442-22.9344 80.3173-24.7978 80.5402-27.2246C80.5587-27.5519 80.5773-27.8977 80.5959-28.2064C80.8373-31.4346 83.0587-33.5871 87.1528-36.2896C93.4745-40.3903 97.1325-44.0154 97.1325-51.0324C97.1325-61.1131 87.9615-67.2254 76.7627-67.2254C66.1273-67.2254 58.882-62.2775 56.9691-56.247C56.5852-55.1578 56.3808-54.1426 56.3808-52.9793C56.3808-50.1007 58.6036-48.1878 61.216-48.1878C63.4259-48.1878 64.9672-49.0852 66.0759-50.7377L66.8689-51.8457C68.7148-55.4438 71.8422-57.6231 75.8898-57.6231C81.0644-57.6231 84.5021-54.5686 84.5021-50.3762C84.5021-46.4669 81.9528-44.4636 76.5657-40.7466C71.9828-37.5429 68.9315-34.3508 68.9315-28.9926C68.9315-28.7089 68.9315-28.394 68.9315-28.1287C68.9315-24.7358 71.0549-22.9344 74.8751-22.9344ZM74.7884-3.74164C78.7619-3.74164 81.9805-6.60079 81.9805-10.4693C81.9805-14.3995 78.8052-17.1969 74.7884-17.1969C70.7468-17.1969 67.5159-14.3747 67.5159-10.4693C67.5159-6.64416 70.7901-3.74164 74.7884-3.74164Z"/>
  </g>
  <g id="Medium-L" transform="matrix(1 0 0 1 1670.9 1556)">
   <path d="M75.6366 29.1187C110.91 29.1187 140.062 0.0138167 140.062-35.2592C140.062-70.5322 110.862-99.637 75.5892-99.637C40.3412-99.637 11.2588-70.5322 11.2588-35.2592C11.2588 0.0138167 40.3886 29.1187 75.6366 29.1187ZM75.6366 18.0048C46.1626 18.0048 22.4451-5.73774 22.4451-35.2592C22.4451-64.7806 46.1152-88.5232 75.5892-88.5232C105.111-88.5232 128.901-64.7806 128.901-35.2592C128.901-5.73774 105.158 18.0048 75.6366 18.0048ZM74.3332-22.672C77.346-22.672 79.2903-24.4759 79.4165-26.795C79.427-27.1461 79.4375-27.5076 79.448-27.8482C79.5847-31.2492 81.6895-33.4459 85.9886-36.3051C92.2574-40.4095 96.0499-44.0667 96.0499-51.1456C96.0499-61.1037 87.0462-67.0064 76.177-67.0064C65.569-67.0064 58.484-61.9099 56.7437-55.9084C56.3999-54.8633 56.2155-53.8961 56.2155-52.785C56.2155-50.0946 58.2904-48.4349 60.5772-48.4349C62.659-48.4349 64.0516-49.3246 65.0565-50.8848L65.8945-52.0779C67.7059-55.8924 71.0937-58.3794 75.5215-58.3794C81.1619-58.3794 84.8365-55.1322 84.8365-50.5779C84.8365-46.5034 82.303-44.3879 76.7834-40.5705C72.1487-37.3229 69.0803-34.0743 69.0803-28.4895C69.0803-28.162 69.0803-27.795 69.0803-27.4899C69.0803-24.3492 70.9626-22.672 74.3332-22.672ZM74.2264-3.87644C77.9106-3.87644 80.9691-6.67587 80.9691-10.2876C80.9691-13.9812 77.958-16.6987 74.2264-16.6987C70.4697-16.6987 67.4152-13.9442 67.4152-10.2876C67.4152-6.72331 70.5171-3.87644 74.2264-3.87644Z"/>
  </g>
  <g id="Regular-L" transform="matrix(1 0 0 1 1374.99 1556)">
   <path d="M74.8301 28.3017C109.632 28.3017 138.454-0.468277 138.454-35.2697C138.454-70.0711 109.579-98.8411 74.7774-98.8411C40.0011-98.8411 11.2588-70.0711 11.2588-35.2697C11.2588-0.468277 40.0538 28.3017 74.8301 28.3017ZM74.8301 19.2307C44.6697 19.2307 20.4076-5.05652 20.4076-35.2697C20.4076-65.4829 44.617-89.7701 74.7774-89.7701C104.991-89.7701 129.331-65.4829 129.331-35.2697C129.331-5.05652 105.043 19.2307 74.8301 19.2307ZM73.6264-22.3297C76.305-22.3297 77.9508-24.056 77.9508-26.2346C77.9508-26.6167 77.9508-26.9988 77.9508-27.3809C77.9508-31.0074 79.9035-33.2618 84.4699-36.3254C90.6699-40.4344 94.6378-44.1337 94.6378-51.2933C94.6378-61.0914 85.8524-66.7208 75.4131-66.7208C64.8406-66.7208 57.9649-61.4305 56.4497-55.4667C56.1582-54.4791 55.9999-53.5744 55.9999-52.5315C55.9999-50.0866 57.8819-48.7573 59.744-48.7573C61.6587-48.7573 62.8574-49.6368 63.7267-51.0767L64.6237-52.3809C66.39-56.4776 70.1173-59.3659 75.0412-59.3659C81.2892-59.3659 85.2728-55.8674 85.2728-50.841C85.2728-46.551 82.7597-44.2891 77.0674-40.3409C72.3652-37.036 69.2743-33.7137 69.2743-27.8332C69.2743-27.4486 69.2743-27.0137 69.2743-26.6567C69.2743-23.845 70.8423-22.3297 73.6264-22.3297ZM73.4932-4.05226C76.8002-4.05226 79.6498-6.77379 79.6498-10.0506C79.6498-13.4355 76.853-16.0489 73.4932-16.0489C70.1083-16.0489 67.2838-13.3827 67.2838-10.0506C67.2838-6.82655 70.1611-4.05226 73.4932-4.05226Z"/>
  </g>
  <g id="Light-L" transform="matrix(1 0 0 1 1079.2 1556)">
   <path d="M73.9141 27.3856C108.257 27.3856 136.603-0.926323 136.603-35.2697C136.603-69.6131 108.224-97.925 73.8804-97.925C39.5239-97.925 11.2588-69.6131 11.2588-35.2697C11.2588-0.926323 39.5576 27.3856 73.9141 27.3856ZM73.9141 20.4903C43.0857 20.4903 18.1746-4.40762 18.1746-35.2697C18.1746-66.1318 43.052-91.0297 73.8804-91.0297C104.742-91.0297 129.674-66.1318 129.674-35.2697C129.674-4.40762 104.776 20.4903 73.9141 20.4903ZM72.7676-22.5015C74.7972-22.5015 76.0805-23.8652 76.0805-25.6048C76.0805-26.1396 76.0805-26.6744 76.0805-27.2091C76.0805-31.0074 77.9377-33.319 82.7141-36.5544C89.0858-40.8352 92.462-44.5345 92.462-51.1406C92.462-60.0417 84.4401-65.6711 74.3443-65.6711C64.1345-65.6711 57.5641-60.1709 56.3352-53.9208C56.12-53.0286 56.019-52.2767 56.019-51.291C56.019-49.3232 57.4239-48.242 58.9615-48.242C60.5327-48.242 61.5596-49.007 62.0854-50.2751L62.6579-51.3694C63.7562-55.9623 68.1134-59.9003 74.0488-59.9003C80.9457-59.9003 85.2919-56.0964 85.2919-50.7646C85.2919-46.4556 82.9315-43.9646 77.0292-39.8446C72.0789-36.368 69.4079-33.0839 69.4079-27.5851C69.4079-26.9905 69.4079-26.4221 69.4079-25.8742C69.4079-23.7305 70.6705-22.5015 72.7676-22.5015ZM72.6535-4.93018C75.5788-4.93018 78.0085-7.36543 78.0085-10.1842C78.0085-13.1301 75.6125-15.4382 72.6535-15.4382C69.7075-15.4382 67.2647-13.0965 67.2647-10.1842C67.2647-7.39911 69.7412-4.93018 72.6535-4.93018Z"/>
  </g>
  <g id="Thin-L" transform="matrix(1 0 0 1 783.716 1556)">
   <path d="M72.7024 26.174C106.44 26.174 134.155-1.53213 134.155-35.2697C134.155-69.0073 106.432-96.7134 72.694-96.7134C38.8929-96.7134 11.2588-69.0073 11.2588-35.2697C11.2588-1.53213 38.9013 26.174 72.7024 26.174ZM72.7024 22.1563C40.9906 22.1563 15.2214-3.5494 15.2214-35.2697C15.2214-66.99 40.9821-92.6957 72.694-92.6957C104.414-92.6957 130.128-66.99 130.128-35.2697C130.128-3.5494 104.423 22.1563 72.7024 22.1563ZM71.6317-22.7287C72.8031-22.7287 73.6068-23.6128 73.6068-24.7718C73.6068-25.5085 73.6068-26.2452 73.6068-26.982C73.6068-31.0074 75.3378-33.3947 80.3918-36.8573C86.9908-41.3653 89.5845-45.0646 89.5845-50.9387C89.5845-58.6534 82.5722-64.2828 72.9308-64.2828C63.2005-64.2828 57.034-58.5049 56.1837-51.8762C56.0696-51.1102 56.0442-50.5602 56.0442-49.6503C56.0442-48.3135 56.8181-47.5605 57.9265-47.5605C59.0434-47.5605 59.8431-48.174 59.9146-49.215L60.058-50.0316C60.2728-55.2808 65.463-60.607 72.7362-60.607C80.4914-60.607 85.3171-56.3993 85.3171-50.6637C85.3171-46.3294 83.1587-43.5355 76.9787-39.1884C71.7003-35.4845 69.5846-32.2509 69.5846-27.257C69.5846-26.3847 69.5846-25.6396 69.5846-24.8393C69.5846-23.579 70.4434-22.7287 71.6317-22.7287ZM71.5428-6.09131C73.9633-6.09131 75.8377-8.14793 75.8377-10.3609C75.8377-12.7263 73.9717-14.6305 71.5428-14.6305C69.1775-14.6305 67.2395-12.7178 67.2395-10.3609C67.2395-8.15636 69.1859-6.09131 71.5428-6.09131Z"/>
  </g>
  <g id="Ultralight-L" transform="matrix(1 0 0 1 487.631 1556)">
   <path d="M72.0819 25.5534C105.509 25.5534 132.9-1.84242 132.9-35.2697C132.9-68.697 105.514-96.0928 72.0864-96.0928C38.5697-96.0928 11.2588-68.697 11.2588-35.2697C11.2588-1.84242 38.5652 25.5534 72.0819 25.5534ZM72.0819 23.0096C39.9175 23.0096 13.7087-3.10983 13.7087-35.2697C13.7087-67.4296 39.922-93.549 72.0864-93.549C104.246-93.549 130.361-67.4296 130.361-35.2697C130.361-3.10983 104.242 23.0096 72.0819 23.0096ZM71.0499-22.845C71.7818-22.845 72.3398-23.4835 72.3398-24.3452C72.3398-25.1853 72.3398-26.0255 72.3398-26.8656C72.3398-31.0074 74.0061-33.4335 79.2024-37.0124C85.9177-41.6368 88.1106-45.3361 88.1106-50.8352C88.1106-57.9423 81.6154-63.5717 72.2068-63.5717C62.7222-63.5717 56.7625-57.6516 56.1061-50.8289C56.0437-50.1276 56.0572-49.6811 56.0572-48.8099C56.0572-47.7963 56.5078-47.2114 57.3965-47.2114C58.2806-47.2114 58.964-47.7474 58.8027-48.672L58.7263-49.3463C58.4887-54.9317 64.1055-60.969 72.0639-60.969C80.2586-60.969 85.33-56.5545 85.33-50.6119C85.33-46.2648 83.2751-43.3157 76.9529-38.8522C71.5063-35.032 69.6751-31.8242 69.6751-27.0889C69.6751-26.0744 69.6751-25.2388 69.6751-24.3092C69.6751-23.5014 70.327-22.845 71.0499-22.845ZM70.974-6.68603C73.1359-6.68603 74.7258-8.54872 74.7258-10.4514C74.7258-12.5194 73.1314-14.2168 70.974-14.2168C68.9059-14.2168 67.2266-12.5239 67.2266-10.4514C67.2266-8.54423 68.9015-6.68603 70.974-6.68603Z"/>
  </g>
  <g id="Black-M" transform="matrix(1 0 0 1 2871.36 1126)">
   <path d="M62.0422 18.116C91.4096 18.116 115.367-5.83621 115.367-35.2035C115.367-64.5709 91.4041-88.5231 62.0367-88.5231C32.6752-88.5231 8.72266-64.5709 8.72266-35.2035C8.72266-5.83621 32.6807 18.116 62.0422 18.116ZM62.0422 0.73415C42.1762 0.73415 26.1158-15.332 26.1158-35.2035C26.1158-55.0751 42.1707-71.1412 62.0367-71.1412C81.9083-71.1412 97.9799-55.0751 97.9799-35.2035C97.9799-15.332 81.9138 0.73415 62.0422 0.73415ZM60.5877-27.1527C64.2575-27.1527 67.03-28.7884 67.7151-31.0898C67.7722-31.2692 67.8293-31.5058 67.8864-31.6281C68.6287-33.2717 70.9351-34.7247 73.0923-36.0464C78.3283-39.2628 80.2483-41.9005 80.2483-46.8207C80.2483-54.9753 72.5164-60.8211 62.2108-60.8211C53.9499-60.8211 47.5905-57.7036 45.2916-52.7808C44.8077-51.7358 44.5628-50.7471 44.5628-49.5885C44.5628-46.5235 46.9062-43.784 50.5449-43.784C52.8188-43.784 54.7422-44.4814 56.0349-46.1921L56.2995-46.5277C57.6855-48.3378 58.9433-48.7534 60.4084-48.7534C62.1699-48.7534 63.7017-47.3039 63.7017-45.8696C63.7017-43.7097 61.6953-42.6745 58.1521-40.2678C54.7913-37.9599 52.6613-35.7993 52.6613-32.9789C52.6613-32.9197 52.6613-32.9061 52.6613-32.8466C52.6613-29.109 55.4796-27.1527 60.5877-27.1527ZM60.6341-10.4191C65.1149-10.4191 68.3141-12.8532 68.3141-17.0549C68.3141-21.2044 65.1204-23.6907 60.6341-23.6907C56.1421-23.6907 52.8345-21.256 52.8345-17.0549C52.8345-12.8587 56.1476-10.4191 60.6341-10.4191Z"/>
  </g>
  <g id="Heavy-M" transform="matrix(1 0 0 1 2575.48 1126)">
   <path d="M61.2053 17.2657C90.0667 17.2657 113.704-6.35571 113.704-35.217C113.704-64.0783 90.0502-87.6997 61.1889-87.6997C32.3418-87.6997 8.72266-64.0783 8.72266-35.217C8.72266-6.35571 32.3582 17.2657 61.2053 17.2657ZM61.2053 2.03478C40.603 2.03478 23.9841-14.5983 23.9841-35.217C23.9841-55.8358 40.5866-72.4688 61.1889-72.4688C81.8077-72.4688 98.4571-55.8358 98.4571-35.217C98.4571-14.5983 81.8241 2.03478 61.2053 2.03478ZM59.8663-26.6771C63.247-26.6771 65.7149-28.2912 66.2383-30.5068C66.282-30.6933 66.3256-30.9233 66.3692-31.0661C66.9363-32.9618 69.0683-34.4764 71.523-36.0232C76.6339-39.2087 78.9058-41.9003 78.9058-47.0428C78.9058-55.185 71.2896-60.6805 61.4612-60.6805C53.1681-60.6805 47.0113-57.3597 44.9394-52.5467C44.5061-51.555 44.2824-50.6136 44.2824-49.5301C44.2824-46.6772 46.481-44.3078 49.6451-44.3078C51.7787-44.3078 53.4904-45.0169 54.6831-46.6102L55.0929-47.1333C56.5646-49.1985 58.1224-49.9029 60.006-49.9029C62.4069-49.9029 64.2568-48.1969 64.2568-46.2232C64.2568-43.7912 62.2438-42.6176 58.5242-40.0801C55.1302-37.7356 52.8813-35.4724 52.8813-32.1911C52.8813-32.1038 52.8813-32.0318 52.8813-31.9468C52.8813-28.4873 55.3622-26.6771 59.8663-26.6771ZM59.8748-10.4559C63.9542-10.4559 66.9758-12.8517 66.9758-16.7224C66.9758-20.5706 63.9706-22.989 59.8748-22.989C55.765-22.989 52.6702-20.5978 52.6702-16.7224C52.6702-12.8681 55.7814-10.4559 59.8748-10.4559Z"/>
  </g>
  <g id="Bold-M" transform="matrix(1 0 0 1 2279.69 1126)">
   <path d="M60.2692 16.3144C88.5644 16.3144 111.844-6.93686 111.844-35.2321C111.844-63.5273 88.5358-86.7786 60.2405-86.7786C31.9688-86.7786 8.72266-63.5273 8.72266-35.2321C8.72266-6.93686 31.9974 16.3144 60.2692 16.3144ZM60.2692 3.48972C38.8432 3.48972 21.5995-13.7775 21.5995-35.2321C21.5995-56.6867 38.8146-73.9539 60.2405-73.9539C81.6951-73.9539 98.991-56.6867 98.991-35.2321C98.991-13.7775 81.7238 3.48972 60.2692 3.48972ZM59.0593-26.1452C62.1167-26.1452 64.2438-27.7351 64.5864-29.8547C64.6149-30.049 64.6435-30.2717 64.672-30.4374C65.0431-32.6151 66.98-34.1985 69.7676-35.9972C74.7384-39.1482 77.404-41.9 77.404-47.2913C77.404-55.4196 69.9173-60.5232 60.6228-60.5232C52.2935-60.5232 46.3634-56.975 44.5454-52.2849C44.1688-51.3527 43.9687-50.4644 43.9687-49.4648C43.9687-46.8492 46.0054-44.8938 48.6385-44.8938C50.6151-44.8938 52.09-45.6159 53.171-47.0779L53.7432-47.8108C55.3107-50.1614 57.2041-51.1889 59.5558-51.1889C62.6719-51.1889 64.8776-49.196 64.8776-46.6187C64.8776-43.8824 62.8574-42.5539 58.9406-39.87C55.5094-37.4848 53.1274-35.1067 53.1274-31.3098C53.1274-31.191 53.1274-31.0538 53.1274-30.9402C53.1274-27.7919 55.231-26.1452 59.0593-26.1452ZM59.0255-10.497C62.6557-10.497 65.4788-12.8499 65.4788-16.3506C65.4788-19.8616 62.6843-22.2041 59.0255-22.2041C55.3432-22.2041 52.4865-19.8615 52.4865-16.3506C52.4865-12.8785 55.3718-10.497 59.0255-10.497Z"/>
  </g>
  <g id="Semibold-M" transform="matrix(1 0 0 1 1983.62 1126)">
   <path d="M59.6238 15.6586C87.5288 15.6586 110.562-7.33749 110.562-35.2425C110.562-63.1475 87.4917-86.1436 59.5867-86.1436C31.7117-86.1436 8.72266-63.1475 8.72266-35.2425C8.72266-7.33749 31.7487 15.6586 59.6238 15.6586ZM59.6238 4.49275C37.63 4.49275 19.9555-13.2117 19.9555-35.2425C19.9555-57.2733 37.5929-74.9777 59.5867-74.9777C81.6175-74.9777 99.359-57.2733 99.359-35.2425C99.359-13.2117 81.6546 4.49275 59.6238 4.49275ZM58.503-25.7784C61.3374-25.7784 63.2296-27.3516 63.4475-29.4052C63.4656-29.6048 63.4838-29.8226 63.502-30.004C63.738-32.3761 65.5403-34.007 68.5574-35.9793C73.4317-39.1065 76.3687-41.8999 76.3687-47.4625C76.3687-55.5813 68.9713-60.4147 60.0447-60.4147C51.6906-60.4147 45.9167-56.7097 44.2738-52.1044C43.9362-51.2132 43.7525-50.3615 43.7525-49.4197C43.7525-46.9678 45.6775-45.2978 47.9446-45.2978C49.8129-45.2978 51.1246-46.0288 52.1285-47.4004L52.8127-48.2778C54.4463-50.8252 56.571-52.0754 59.2454-52.0754C62.8547-52.0754 65.3057-49.8847 65.3057-46.8914C65.3057-43.9453 63.2805-42.51 59.2276-39.7252C55.7708-37.3119 53.2971-34.8545 53.2971-30.7022C53.2971-30.5618 53.2971-30.3796 53.2971-30.2462C53.2971-27.3124 55.1405-25.7784 58.503-25.7784ZM58.4399-10.5254C61.7605-10.5254 64.4467-12.8487 64.4467-16.0942C64.4467-19.3728 61.7975-21.663 58.4399-21.663C55.0524-21.663 52.3598-19.3539 52.3598-16.0942C52.3598-12.8857 55.0894-10.5254 58.4399-10.5254Z"/>
  </g>
  <g id="Medium-M" transform="matrix(1 0 0 1 1687.4 1126)">
   <path d="M59.1344 15.1614C86.7435 15.1614 109.59-7.64127 109.59-35.2504C109.59-62.8595 86.7001-85.6621 59.091-85.6621C31.5167-85.6621 8.72266-62.8595 8.72266-35.2504C8.72266-7.64127 31.5601 15.1614 59.1344 15.1614ZM59.1344 5.25329C36.7101 5.25329 18.709-12.7826 18.709-35.2504C18.709-57.7181 36.6666-75.754 59.091-75.754C81.5587-75.754 99.6381-57.7181 99.6381-35.2504C99.6381-12.7826 81.6021 5.25329 59.1344 5.25329ZM58.0811-25.5003C60.7465-25.5003 62.4606-27.0609 62.584-29.0643C62.5942-29.268 62.6045-29.482 62.6148-29.6754C62.7484-32.1949 64.4486-33.8618 67.6398-35.9657C72.4409-39.0748 75.5836-41.8998 75.5836-47.5924C75.5836-55.704 68.2539-60.3325 59.6064-60.3325C51.2335-60.3325 45.578-56.5086 44.0678-51.9675C43.7599-51.1074 43.5885-50.2834 43.5885-49.3856C43.5885-47.0577 45.4289-45.6041 47.4184-45.6041C49.2046-45.6041 50.3926-46.3419 51.3381-47.6449L52.1072-48.6319C53.7909-51.3285 56.0909-52.7476 59.0101-52.7476C62.9932-52.7476 65.6302-50.4069 65.6302-47.0982C65.6302-43.993 63.6012-42.4767 59.4452-39.6155C55.969-37.1807 53.4258-34.6634 53.4258-30.2416C53.4258-30.0846 53.4258-29.8683 53.4258-29.72C53.4258-26.9489 55.0719-25.5003 58.0811-25.5003ZM57.9959-10.5469C61.0817-10.5469 63.6641-12.8477 63.6641-15.8998C63.6641-19.0022 61.1252-21.2527 57.9959-21.2527C54.8319-21.2527 52.2638-18.969 52.2638-15.8998C52.2638-12.8912 54.8753-10.5469 57.9959-10.5469Z"/>
  </g>
  <g id="Regular-M" transform="matrix(1 0 0 1 1391.32 1126)">
   <path d="M58.4961 14.5128C85.7192 14.5128 108.321-8.0375 108.321-35.2606C108.321-62.4838 85.6675-85.0341 58.4443-85.0341C31.2624-85.0341 8.72266-62.4838 8.72266-35.2606C8.72266-8.0375 31.3141 14.5128 58.4961 14.5128ZM58.4961 6.24529C35.5102 6.24529 17.0831-12.223 17.0831-35.2606C17.0831-58.2983 35.4584-76.7666 58.4443-76.7666C81.482-76.7666 100.002-58.2983 100.002-35.2606C100.002-12.223 81.5337 6.24529 58.4961 6.24529ZM57.5309-25.1376C59.9758-25.1376 61.4576-26.6817 61.4576-28.6197C61.4576-28.8287 61.4576-29.0377 61.4576-29.2467C61.4576-31.9585 63.0248-33.6724 66.443-35.948C71.1485-39.0336 74.5597-41.8996 74.5597-47.7618C74.5597-55.8639 67.3182-60.2253 59.0347-60.2253C50.6372-60.2253 45.1362-56.2463 43.7992-51.789C43.5299-50.9695 43.3746-50.1817 43.3746-49.341C43.3746-47.1749 45.1046-46.0037 46.7321-46.0037C48.4113-46.0037 49.4378-46.7504 50.3071-47.9638L51.1869-49.0938C52.9359-51.9849 55.4648-53.6244 58.7031-53.6244C63.1739-53.6244 66.0535-51.088 66.0535-47.3679C66.0535-44.0552 64.0196-42.4332 59.7291-39.4723C56.2275-37.0097 53.5936-34.414 53.5936-29.6407C53.5936-29.4623 53.5936-29.2015 53.5936-29.0337C53.5936-26.4747 54.9824-25.1376 57.5309-25.1376ZM57.4168-10.5749C60.1964-10.5749 62.6434-12.8465 62.6434-15.6462C62.6434-18.5188 60.2482-20.7175 57.4168-20.7175C54.5442-20.7175 52.1385-18.467 52.1385-15.6462C52.1385-12.8983 54.596-10.5749 57.4168-10.5749Z"/>
  </g>
  <g id="Light-M" transform="matrix(1 0 0 1 1095.44 1126)">
   <path d="M57.6748 13.6915C84.4872 13.6915 106.662-8.44816 106.662-35.2606C106.662-62.0731 84.4526-84.2128 57.6401-84.2128C30.8346-84.2128 8.72266-62.0731 8.72266-35.2606C8.72266-8.44816 30.8693 13.6915 57.6748 13.6915ZM57.6748 7.37462C34.09 7.37462 15.0811-11.6412 15.0811-35.2606C15.0811-58.8801 34.0554-77.8959 57.6401-77.8959C81.2595-77.8959 100.31-58.8801 100.31-35.2606C100.31-11.6412 81.2942 7.37462 57.6748 7.37462ZM56.7609-25.2916C58.6241-25.2916 59.7807-26.5106 59.7807-28.055C59.7807-28.4009 59.7807-28.7468 59.7807-29.0927C59.7807-31.9585 61.2623-33.7237 64.8688-36.1533C69.7283-39.3929 72.609-42.2589 72.609-47.6249C72.609-54.9228 66.052-59.2842 58.0765-59.2842C50.004-59.2842 44.7769-55.117 43.6965-50.403C43.4957-49.6691 43.3917-49.0181 43.3917-48.2288C43.3917-46.4905 44.6939-45.5417 46.0305-45.5417C47.4017-45.5417 48.2743-46.1857 48.8355-47.2451L49.4244-48.1869C50.5746-51.523 53.6681-54.1035 57.8133-54.1035C62.866-54.1035 66.0706-51.2934 66.0706-47.2994C66.0706-43.9696 64.1736-42.1423 59.6949-39.0274C55.9708-36.4108 53.7134-33.8494 53.7134-29.4182C53.7134-29.0516 53.7134-28.6711 53.7134-28.3322C53.7134-26.372 54.8284-25.2916 56.7609-25.2916ZM56.6639-11.362C59.1013-11.362 61.1719-13.377 61.1719-15.766C61.1719-18.245 59.136-20.17 56.6639-20.17C54.1849-20.17 52.1214-18.2104 52.1214-15.766C52.1214-13.4116 54.2196-11.362 56.6639-11.362Z"/>
  </g>
  <g id="Thin-M" transform="matrix(1 0 0 1 799.828 1126)">
   <path d="M56.5885 12.6052C82.8578 12.6052 104.466-8.9913 104.466-35.2606C104.466-61.53 82.8458-83.1265 56.5765-83.1265C30.2689-83.1265 8.72266-61.53 8.72266-35.2606C8.72266-8.9913 30.2809 12.6052 56.5885 12.6052ZM56.5885 8.86824C32.2117 8.86824 12.4333-10.8718 12.4333-35.2606C12.4333-59.6495 32.1996-79.3895 56.5765-79.3895C80.9653-79.3895 100.717-59.6495 100.717-35.2606C100.717-10.8718 80.9773 8.86824 56.5885 8.86824ZM55.7425-25.4953C56.8363-25.4953 57.5629-26.2843 57.5629-27.3082C57.5629-27.8352 57.5629-28.3621 57.5629-28.8891C57.5629-31.9585 58.9314-33.7916 62.7868-36.4249C67.8499-39.8682 70.0291-42.7342 70.0291-47.4439C70.0291-53.6781 64.3774-58.0395 56.8092-58.0395C49.1667-58.0395 44.3017-53.6234 43.5607-48.57C43.4504-47.9492 43.4144-47.4792 43.4144-46.7578C43.4144-45.5853 44.1508-44.9307 45.1027-44.9307C46.0665-44.9307 46.7354-45.4389 46.8893-46.2946L47.0935-46.9875C47.4516-50.9119 51.2919-54.7372 56.6365-54.7372C62.4586-54.7372 66.0933-51.5649 66.0933-47.2089C66.0933-43.8564 64.3772-41.7576 59.6496-38.439C55.6314-35.6188 53.8718-33.1026 53.8718-29.124C53.8718-28.5085 53.8718-27.9695 53.8718-27.4043C53.8718-26.2362 54.6247-25.4953 55.7425-25.4953ZM55.6682-12.403C57.653-12.403 59.2256-14.0785 59.2256-15.9244C59.2256-17.8829 57.665-19.4458 55.6682-19.4458C53.7097-19.4458 52.0987-17.8709 52.0987-15.9244C52.0987-14.0905 53.7217-12.403 55.6682-12.403Z"/>
  </g>
  <g id="Ultralight-M" transform="matrix(1 0 0 1 503.679 1126)">
   <path d="M56.0321 12.0488C82.0233 12.0488 103.342-9.26949 103.342-35.2606C103.342-61.2518 82.0228-82.5701 56.0317-82.5701C29.9791-82.5701 8.72266-61.2518 8.72266-35.2606C8.72266-9.26949 29.9795 12.0488 56.0321 12.0488ZM56.0321 9.63326C31.2496 9.63326 11.0772-10.4777 11.0772-35.2606C11.0772-60.0436 31.2492-80.1545 56.0317-80.1545C80.8147-80.1545 100.926-60.0436 100.926-35.2606C100.926-10.4777 80.8151 9.63326 56.0321 9.63326ZM55.2209-25.5996C55.9206-25.5996 56.427-26.1684 56.427-26.9257C56.427-27.5454 56.427-28.1651 56.427-28.7847C56.427-31.9585 57.7375-33.8264 61.7204-36.564C66.8879-40.1116 68.7077-42.9776 68.7077-47.3511C68.7077-53.0406 63.5196-57.402 56.1601-57.402C48.7378-57.402 44.0583-52.8583 43.4912-47.6311C43.4272-47.0682 43.4259-46.691 43.4259-46.0044C43.4259-45.1216 43.8726-44.6177 44.6274-44.6177C45.3826-44.6177 45.9472-45.0564 45.8924-45.8078L45.8996-46.3732C45.852-50.599 50.0749-55.0618 56.0338-55.0618C62.25-55.0618 66.1049-51.704 66.1049-47.1625C66.1049-43.7985 64.4816-41.5606 59.6264-38.1376C55.4575-35.2131 53.9529-32.72 53.9529-28.9733C53.9529-28.2303 53.9529-27.6102 53.9529-26.9291C53.9529-26.1667 54.5204-25.5996 55.2209-25.5996ZM55.1582-12.9362C56.9111-12.9362 58.2288-14.4378 58.2288-16.0056C58.2288-17.6975 56.9115-19.0749 55.1582-19.0749C53.4663-19.0749 52.0871-17.697 52.0871-16.0056C52.0871-14.4383 53.4667-12.9362 55.1582-12.9362Z"/>
  </g>
  <g id="Black-S" transform="matrix(1 0 0 1 2884.57 696)">
   <path d="M48.8281 6.78711C71.9727 6.78711 90.8203-12.0605 90.8203-35.2051C90.8203-58.3496 71.9727-77.1973 48.8281-77.1973C25.6836-77.1973 6.83594-58.3496 6.83594-35.2051C6.83594-12.0605 25.6836 6.78711 48.8281 6.78711ZM48.8281-7.37305C33.4473-7.37305 20.9961-19.8242 20.9961-35.2051C20.9961-50.5859 33.4473-63.0371 48.8281-63.0371C64.209-63.0371 76.6602-50.5859 76.6602-35.2051C76.6602-19.8242 64.209-7.37305 48.8281-7.37305ZM47.6562-29.0527C50.5859-29.0527 52.832-30.3223 53.418-32.1289C53.4668-32.2754 53.5156-32.4707 53.5645-32.5684C54.1992-33.7891 56.0547-34.9121 57.666-35.8887C61.8164-38.4277 63.1836-40.4785 63.1836-44.2383C63.1836-50.5859 57.1289-55.2734 48.9258-55.2734C42.4805-55.2734 37.4512-52.8809 35.5957-48.9746C35.2051-48.1445 35.0098-47.3633 35.0098-46.4355C35.0098-43.9941 36.8652-41.748 39.8438-41.748C41.6504-41.748 43.2129-42.2852 44.2383-43.6523L44.3848-43.8477C45.4102-45.2148 46.3379-45.5078 47.4121-45.5078C48.6328-45.5078 49.7559-44.4336 49.7559-43.457C49.7559-41.8457 48.1934-41.0645 45.459-39.209C42.8223-37.4023 41.2109-35.7422 41.2109-33.6914C41.2109-33.6426 41.2109-33.6426 41.2109-33.5938C41.2109-30.6152 43.5059-29.0527 47.6562-29.0527ZM47.7051-15.8203C51.3184-15.8203 53.8574-17.7246 53.8574-21.0938C53.8574-24.4141 51.3184-26.3672 47.7051-26.3672C44.0918-26.3672 41.4551-24.4629 41.4551-21.0938C41.4551-17.7246 44.0918-15.8203 47.7051-15.8203Z"/>
  </g>
  <g id="Heavy-S" transform="matrix(1 0 0 1 2588.47 696)">
   <path d="M48.2173 6.16479C70.9816 6.16479 89.6102-12.4524 89.6102-35.2166C89.6102-57.9808 70.97-76.598 48.2058-76.598C25.4531-76.598 6.83594-57.9808 6.83594-35.2166C6.83594-12.4524 25.4646 6.16479 48.2173 6.16479ZM48.2173-6.40499C32.2833-6.40499 19.4288-19.271 19.4288-35.2166C19.4288-51.1622 32.2718-64.0282 48.2058-64.0282C64.1514-64.0282 77.0289-51.1622 77.0289-35.2166C77.0289-19.271 64.1629-6.40499 48.2173-6.40499ZM47.1376-28.6263C49.8945-28.6263 51.9216-29.9189 52.3692-31.7025C52.4065-31.8375 52.4438-32.0097 52.4812-32.1074C52.9661-33.524 54.6833-34.6931 56.5251-35.8426C60.5487-38.3355 62.2847-40.4324 62.2847-44.4457C62.2847-50.8856 56.2415-55.2734 48.4072-55.2734C41.8927-55.2734 37.0017-52.731 35.3076-48.9516C34.9515-48.1561 34.7678-47.3979 34.7678-46.5277C34.7678-44.2131 36.5541-42.2551 39.1638-42.2551C40.8898-42.2551 42.2909-42.8153 43.2702-44.1018L43.5781-44.4815C44.7533-46.01 45.8654-46.4298 47.1816-46.4298C48.8748-46.4298 50.2284-45.1712 50.2284-43.7682C50.2284-41.9264 48.6428-41.0529 45.7817-39.1053C43.145-37.2871 41.3838-35.5347 41.3838-33.046C41.3838-32.9972 41.3838-32.9626 41.3838-32.9138C41.3838-30.0966 43.4252-28.6263 47.1376-28.6263ZM47.1519-15.7512C50.4655-15.7512 52.9009-17.6555 52.9009-20.7941C52.9009-23.907 50.4771-25.8371 47.1519-25.8371C43.8152-25.8371 41.3168-23.9328 41.3168-20.7941C41.3168-17.667 43.8267-15.7512 47.1519-15.7512Z"/>
  </g>
  <g id="Bold-S" transform="matrix(1 0 0 1 2292.43 696)">
   <path d="M47.5342 5.46875C69.873 5.46875 88.2568-12.8906 88.2568-35.2295C88.2568-57.5684 69.8486-75.9277 47.5098-75.9277C25.1953-75.9277 6.83594-57.5684 6.83594-35.2295C6.83594-12.8906 25.2197 5.46875 47.5342 5.46875ZM47.5342-5.32227C30.9814-5.32227 17.6758-18.6523 17.6758-35.2295C17.6758-51.8066 30.957-65.1367 47.5098-65.1367C64.0869-65.1367 77.4414-51.8066 77.4414-35.2295C77.4414-18.6523 64.1113-5.32227 47.5342-5.32227ZM46.5576-28.1494C49.1211-28.1494 50.9033-29.4678 51.1963-31.2256C51.2207-31.3477 51.2451-31.4941 51.2695-31.5918C51.5869-33.2275 53.1494-34.4482 55.249-35.791C59.1309-38.2324 61.2793-40.3809 61.2793-44.6777C61.2793-51.2207 55.249-55.2734 47.8271-55.2734C41.2354-55.2734 36.499-52.5635 34.9854-48.9258C34.668-48.1689 34.4971-47.4365 34.4971-46.6309C34.4971-44.458 36.2061-42.8223 38.4033-42.8223C40.0391-42.8223 41.2598-43.4082 42.1875-44.6045L42.6758-45.1904C44.0186-46.8994 45.3369-47.4609 46.9238-47.4609C49.1455-47.4609 50.7568-45.9961 50.7568-44.1162C50.7568-42.0166 49.1455-41.04 46.1426-38.9893C43.5059-37.1582 41.5771-35.3027 41.5771-32.3242C41.5771-32.2754 41.5771-32.2021 41.5771-32.1533C41.5771-29.5166 43.335-28.1494 46.5576-28.1494ZM46.5332-15.6738C49.5117-15.6738 51.8311-17.5781 51.8311-20.459C51.8311-23.3398 49.5361-25.2441 46.5332-25.2441C43.5059-25.2441 41.1621-23.3398 41.1621-20.459C41.1621-17.6025 43.5303-15.6738 46.5332-15.6738Z"/>
  </g>
  <g id="Semibold-S" transform="matrix(1 0 0 1 1996.19 696)">
   <path d="M47.0632 4.98887C69.1088 4.98887 87.3237-13.1928 87.3237-35.2384C87.3237-57.284 69.0755-75.4656 47.0299-75.4656C25.0176-75.4656 6.83594-57.284 6.83594-35.2384C6.83594-13.1928 25.0509 4.98887 47.0632 4.98887ZM47.0632-4.57578C30.0839-4.57578 16.4672-18.2258 16.4672-35.2384C16.4672-52.251 30.0506-65.901 47.0299-65.901C64.0425-65.901 77.7258-52.251 77.7258-35.2384C77.7258-18.2258 64.0758-4.57578 47.0632-4.57578ZM46.1577-27.8206C48.5879-27.8206 50.2013-29.1567 50.3876-30.8968C50.4031-31.01 50.4187-31.1387 50.4342-31.2363C50.636-33.0231 52.0919-34.2794 54.3692-35.7555C58.1533-38.1613 60.5861-40.3453 60.5861-44.8377C60.5861-51.4518 54.5647-55.2734 47.4272-55.2734C40.7821-55.2734 36.1524-52.4479 34.7632-48.908C34.4725-48.1778 34.3104-47.4632 34.3104-46.702C34.3104-44.6269 35.9661-43.2133 37.879-43.2133C39.4525-43.2133 40.5488-43.817 41.441-44.9511L42.0537-45.6792C43.512-47.5126 44.9726-48.1719 46.7461-48.1719C49.3321-48.1719 51.1212-46.5648 51.1212-44.3562C51.1212-42.0788 49.4921-41.0312 46.3914-38.9093C43.7547-37.0693 41.7104-35.1428 41.7104-31.8266C41.7104-31.7777 41.7104-31.6778 41.7104-31.629C41.7104-29.1167 43.2728-27.8206 46.1577-27.8206ZM46.1066-15.6205C48.8541-15.6205 51.0935-17.5248 51.0935-20.2279C51.0935-22.9488 48.8874-24.8354 46.1066-24.8354C43.2926-24.8354 41.0555-22.9311 41.0555-20.2279C41.0555-17.5581 43.3259-15.6205 46.1066-15.6205Z"/>
  </g>
  <g id="Medium-S" transform="matrix(1 0 0 1 1699.83 696)">
   <path d="M46.7061 4.625C68.5293 4.625 86.6162-13.4219 86.6162-35.2451C86.6162-57.0684 68.4893-75.1152 46.666-75.1152C24.8828-75.1152 6.83594-57.0684 6.83594-35.2451C6.83594-13.4219 24.9229 4.625 46.7061 4.625ZM46.7061-4.00977C29.4033-4.00977 15.5508-17.9023 15.5508-35.2451C15.5508-52.5879 29.3633-66.4805 46.666-66.4805C64.0088-66.4805 77.9414-52.5879 77.9414-35.2451C77.9414-17.9023 64.0488-4.00977 46.7061-4.00977ZM45.8545-27.5713C48.1836-27.5713 49.6689-28.9209 49.7744-30.6475C49.7832-30.7539 49.792-30.8691 49.8008-30.9668C49.915-32.8682 51.29-34.1514 53.7021-35.7285C57.4121-38.1074 60.0605-40.3184 60.0605-44.959C60.0605-51.627 54.0459-55.2734 47.124-55.2734C40.4385-55.2734 35.8896-52.3604 34.5947-48.8945C34.3242-48.1846 34.1689-47.4834 34.1689-46.7559C34.1689-44.7549 35.7842-43.5098 37.4814-43.5098C39.0078-43.5098 40.0098-44.127 40.875-45.2139L41.582-46.0498C43.1279-47.9775 44.6963-48.7109 46.6113-48.7109C49.4736-48.7109 51.3975-46.9961 51.3975-44.5381C51.3975-42.126 49.7549-41.0244 46.5801-38.8486C43.9434-37.002 41.8115-35.0215 41.8115-31.4492C41.8115-31.4004 41.8115-31.2803 41.8115-31.2314C41.8115-28.8135 43.2256-27.5713 45.8545-27.5713ZM45.7832-15.5801C48.3555-15.5801 50.5342-17.4844 50.5342-20.0527C50.5342-22.6523 48.3955-24.5254 45.7832-24.5254C43.1309-24.5254 40.9746-22.6211 40.9746-20.0527C40.9746-17.5244 43.1709-15.5801 45.7832-15.5801Z"/>
  </g>
  <g id="Regular-S" transform="matrix(1 0 0 1 1403.58 696)">
   <path d="M46.2402 4.15039C67.7734 4.15039 85.6934-13.7207 85.6934-35.2539C85.6934-56.7871 67.7246-74.6582 46.1914-74.6582C24.707-74.6582 6.83594-56.7871 6.83594-35.2539C6.83594-13.7207 24.7559 4.15039 46.2402 4.15039ZM46.2402-3.27148C28.5156-3.27148 14.3555-17.4805 14.3555-35.2539C14.3555-53.0273 28.4668-67.2363 46.1914-67.2363C63.9648-67.2363 78.2227-53.0273 78.2227-35.2539C78.2227-17.4805 64.0137-3.27148 46.2402-3.27148ZM45.459-27.2461C47.6562-27.2461 48.9746-28.6133 48.9746-30.3223C48.9746-30.4199 48.9746-30.5176 48.9746-30.6152C48.9746-32.666 50.2441-33.9844 52.832-35.6934C56.4453-38.0371 59.375-40.2832 59.375-45.1172C59.375-51.8555 53.3691-55.2734 46.7285-55.2734C39.9902-55.2734 35.5469-52.2461 34.375-48.877C34.1309-48.1934 33.9844-47.5098 33.9844-46.8262C33.9844-44.9219 35.5469-43.8965 36.9629-43.8965C38.4277-43.8965 39.3066-44.5312 40.1367-45.5566L40.9668-46.5332C42.627-48.584 44.3359-49.4141 46.4355-49.4141C49.6582-49.4141 51.7578-47.5586 51.7578-44.7754C51.7578-42.1875 50.0977-41.0156 46.8262-38.7695C44.1895-36.9141 41.9434-34.8633 41.9434-30.957C41.9434-30.9082 41.9434-30.7617 41.9434-30.7129C41.9434-28.418 43.1641-27.2461 45.459-27.2461ZM45.3613-15.5273C47.7051-15.5273 49.8047-17.4316 49.8047-19.8242C49.8047-22.2656 47.7539-24.1211 45.3613-24.1211C42.9199-24.1211 40.8691-22.2168 40.8691-19.8242C40.8691-17.4805 42.9688-15.5273 45.3613-15.5273Z"/>
  </g>
  <g id="Light-S" transform="matrix(1 0 0 1 1107.6 696)">
   <path d="M45.5137 3.42383C66.6836 3.42383 84.2251-14.084 84.2251-35.2539C84.2251-56.4238 66.6499-73.9316 45.48-73.9316C24.3286-73.9316 6.83594-56.4238 6.83594-35.2539C6.83594-14.084 24.3623 3.42383 45.5137 3.42383ZM45.5137-2.27247C27.2593-2.27247 12.5845-16.9658 12.5845-35.2539C12.5845-53.542 27.2256-68.2353 45.48-68.2353C63.7681-68.2353 78.4951-53.542 78.4951-35.2539C78.4951-16.9658 63.8018-2.27247 45.5137-2.27247ZM44.7778-27.3823C46.4605-27.3823 47.4912-28.4619 47.4912-29.8228C47.4912-30.0415 47.4912-30.2603 47.4912-30.479C47.4912-32.666 48.6851-34.0298 51.4395-35.875C55.189-38.355 57.6494-40.6011 57.6494-44.9961C57.6494-51.023 52.249-54.4409 45.8809-54.4409C39.4302-54.4409 35.229-51.2471 34.2842-47.6509C34.1006-47.043 33.9995-46.4805 33.9995-45.8423C33.9995-44.3164 35.1836-43.4878 36.3423-43.4878C37.5347-43.4878 38.2774-44.0317 38.835-44.9209L39.4077-45.731C40.5381-48.1753 42.7466-49.8379 45.6484-49.8379C49.3857-49.8379 51.7729-47.7402 51.7729-44.7148C51.7729-42.1118 50.2339-40.7583 46.7959-38.376C43.9624-36.3843 42.0493-34.3638 42.0493-30.7603C42.0493-30.5449 42.0493-30.2925 42.0493-30.0923C42.0493-28.3271 43.0278-27.3823 44.7778-27.3823ZM44.6953-16.2236C46.7363-16.2236 48.5029-17.9009 48.5029-19.9302C48.5029-22.0234 46.77-23.6367 44.6953-23.6367C42.6021-23.6367 40.854-21.9897 40.854-19.9302C40.854-17.9346 42.6357-16.2236 44.6953-16.2236Z"/>
  </g>
  <g id="Thin-S" transform="matrix(1 0 0 1 811.863 696)">
   <path d="M44.5527 2.4629C65.2422 2.4629 82.2832-14.5644 82.2832-35.2539C82.2832-55.9434 65.2285-72.9707 44.5391-72.9707C23.8281-72.9707 6.83594-55.9434 6.83594-35.2539C6.83594-14.5644 23.8418 2.4629 44.5527 2.4629ZM44.5527-0.95119C25.5977-0.95119 10.2422-16.2852 10.2422-35.2539C10.2422-54.2226 25.584-69.5566 44.5391-69.5566C63.5078-69.5566 78.8555-54.2226 78.8555-35.2539C78.8555-16.2852 63.5215-0.95119 44.5527-0.95119ZM43.877-27.5625C44.8789-27.5625 45.5293-28.2617 45.5293-29.1621C45.5293-29.541 45.5293-29.9199 45.5293-30.2988C45.5293-32.666 46.6231-34.0898 49.5977-36.1152C53.5274-38.7754 55.3672-41.0215 55.3672-44.8359C55.3672-49.9219 50.7676-53.3399 44.7598-53.3399C38.6895-53.3399 34.8086-49.9258 34.1641-46.0293C34.0605-45.5215 34.0195-45.1192 34.0195-44.541C34.0195-43.5156 34.7031-42.9473 35.5215-42.9473C36.3535-42.9473 36.916-43.3711 37.1133-44.0801L37.3457-44.6699C37.7754-47.6348 40.6446-50.3984 44.6074-50.3984C49.0254-50.3984 51.793-47.9805 51.793-44.6348C51.793-42.0117 50.4141-40.418 46.7559-37.8555C43.6621-35.6836 42.1895-33.7031 42.1895-30.5C42.1895-30.0645 42.1895-29.6719 42.1895-29.2715C42.1895-28.207 42.8477-27.5625 43.877-27.5625ZM43.8145-17.1445C45.4551-17.1445 46.7813-18.5215 46.7813-20.0703C46.7813-21.7031 45.4688-22.9961 43.8145-22.9961C42.1816-22.9961 40.834-21.6895 40.834-20.0703C40.834-18.5351 42.1953-17.1445 43.8145-17.1445Z"/>
  </g>
  <g id="Ultralight-S" transform="matrix(1 0 0 1 515.649 696)">
   <path d="M44.0606 1.97072C64.5039 1.97072 81.2886-14.8105 81.2886-35.2539C81.2886-55.6973 64.5005-72.4785 44.0571-72.4785C23.5718-72.4785 6.83594-55.6973 6.83594-35.2539C6.83594-14.8105 23.5752 1.97072 44.0606 1.97072ZM44.0606-0.274438C24.7466-0.274438 9.04252-15.9365 9.04252-35.2539C9.04252-54.5713 24.7432-70.2334 44.0571-70.2334C63.3745-70.2334 79.04-54.5713 79.04-35.2539C79.04-15.9365 63.3779-0.274438 44.0606-0.274438ZM43.4155-27.6548C44.0689-27.6548 44.5244-28.1592 44.5244-28.8237C44.5244-29.2847 44.5244-29.7456 44.5244-30.2065C44.5244-32.666 45.5669-34.1206 48.6543-36.2383C52.6763-38.9907 54.1983-41.2368 54.1983-44.7539C54.1983-49.3579 50.0088-52.7759 44.1856-52.7759C38.3101-52.7759 34.5933-49.249 34.1025-45.1988C34.04-44.7422 34.0298-44.4219 34.0298-43.8745C34.0298-43.1055 34.457-42.6704 35.1011-42.6704C35.7486-42.6704 36.2188-43.0327 36.2315-43.6494L36.2896-44.1265C36.3604-47.3579 39.5679-50.6855 44.0742-50.6855C48.8408-50.6855 51.8032-48.1035 51.8032-44.5938C51.8032-41.9605 50.5063-40.2437 46.7354-37.5889C43.5083-35.3247 42.2612-33.3648 42.2612-30.3667C42.2612-29.8184 42.2612-29.354 42.2612-28.8511C42.2612-28.1455 42.7554-27.6548 43.4155-27.6548ZM43.3633-17.6162C44.7989-17.6162 45.8994-18.8393 45.8994-20.1421C45.8994-21.5391 44.8023-22.668 43.3633-22.668C41.9663-22.668 40.8237-21.5356 40.8237-20.1421C40.8237-18.8428 41.9697-17.6162 43.3633-17.6162Z"/>
  </g>
 </g>
</svg>
