<?xml version="1.0" encoding="UTF-8"?>
<svg width="25" height="25" viewBox="0 0 25 25" version="1.1" xmlns="http://www.w3.org/2000/svg" xmlns:xlink="http://www.w3.org/1999/xlink">
 <path d="M11.66,-2.9 c1.35,0,2.63,0.26,3.83,0.78 c1.2,0.52,2.25,1.23,3.16,2.15 c0.91,0.91,1.63,1.97,2.15,3.16 c0.52,1.2,0.78,2.47,0.78,3.83 c0,1.35,-0.26,2.63,-0.78,3.83 c-0.52,1.2,-1.23,2.25,-2.15,3.16 c-0.91,0.91,-1.97,1.63,-3.17,2.15 c-1.2,0.52,-2.48,0.78,-3.83,0.78 c-1.35,0,-2.63,-0.26,-3.83,-0.78 c-1.2,-0.52,-2.25,-1.23,-3.16,-2.15 c-0.91,-0.91,-1.63,-1.97,-2.14,-3.16 c-0.52,-1.2,-0.78,-2.47,-0.78,-3.83 c0,-1.35,0.26,-2.63,0.78,-3.83 c0.52,-1.2,1.23,-2.25,2.15,-3.16 c0.91,-0.91,1.97,-1.63,3.16,-2.15 c1.2,-0.52,2.47,-0.78,3.83,-0.78 Z M11.66,-1.24 c-1.15,0,-2.22,0.21,-3.22,0.64 c-1.0,0.43,-1.87,1.02,-2.63,1.77 c-0.76,0.76,-1.34,1.63,-1.77,2.63 c-0.42,1.0,-0.64,2.07,-0.64,3.22 c0,1.15,0.21,2.22,0.64,3.22 c0.42,1.0,1.01,1.88,1.76,2.63 c0.75,0.76,1.63,1.35,2.62,1.77 c1.0,0.42,2.07,0.64,3.22,0.64 c1.15,0,2.22,-0.21,3.22,-0.64 c1.0,-0.42,1.88,-1.02,2.63,-1.77 c0.76,-0.76,1.35,-1.64,1.77,-2.63 c0.43,-1.0,0.64,-2.07,0.64,-3.22 c0,-1.15,-0.21,-2.22,-0.64,-3.22 c-0.42,-1.0,-1.02,-1.87,-1.77,-2.63 c-0.76,-0.76,-1.64,-1.35,-2.63,-1.77 c-1.0,-0.43,-2.07,-0.64,-3.22,-0.64 Z M9.95,1.58 l3.96,0 c0.2,0,0.37,0.06,0.51,0.19 c0.14,0.13,0.2,0.29,0.2,0.49 c0,0.19,-0.07,0.36,-0.2,0.49 c-0.14,0.13,-0.3,0.19,-0.51,0.19 l-1.21,0 l0,4.95 c0,0.27,-0.06,0.48,-0.19,0.64 c-0.13,0.16,-0.32,0.24,-0.56,0.24 l-1.83,0 c-0.2,0,-0.37,-0.06,-0.51,-0.19 c-0.14,-0.13,-0.2,-0.29,-0.2,-0.49 c0,-0.19,0.07,-0.36,0.2,-0.49 c0.14,-0.13,0.3,-0.19,0.51,-0.19 l1.04,0 l0,-4.46 l-1.21,0 c-0.2,0,-0.37,-0.06,-0.51,-0.19 c-0.14,-0.13,-0.2,-0.29,-0.2,-0.49 c0,-0.19,0.07,-0.36,0.2,-0.49 c0.14,-0.13,0.3,-0.19,0.51,-0.19 Z M11.57,10.39 c0.36,0,0.66,0.12,0.9,0.37 c0.24,0.25,0.36,0.54,0.36,0.89 c0,0.36,-0.12,0.66,-0.36,0.9 c-0.24,0.25,-0.54,0.37,-0.9,0.37 c-0.35,0,-0.65,-0.12,-0.89,-0.37 c-0.25,-0.25,-0.37,-0.55,-0.37,-0.9 c0,-0.35,0.12,-0.65,0.37,-0.89 c0.25,-0.25,0.54,-0.37,0.89,-0.37 Z M11.57,10.39" fill="rgb(0,0,0)" transform="matrix(1,0,0,-1,0.84423828125,19.51873224431818)"/>
</svg>