<?xml version="1.0" encoding="UTF-8"?>
<svg width="25" height="25" viewBox="0 0 25 25" version="1.1" xmlns="http://www.w3.org/2000/svg" xmlns:xlink="http://www.w3.org/1999/xlink">
 <path d="M8.25,-3.72 c0.19,0,0.37,0.05,0.53,0.15 c0.16,0.1,0.35,0.26,0.59,0.47 l3.51,3.21 l6.57,0 c0.97,0,1.78,0.17,2.44,0.52 c0.66,0.34,1.16,0.85,1.5,1.51 c0.34,0.66,0.51,1.47,0.51,2.42 l0,7.45 c0,0.95,-0.17,1.76,-0.51,2.42 c-0.34,0.66,-0.84,1.16,-1.5,1.51 c-0.66,0.35,-1.47,0.52,-2.44,0.52 l-12.52,0 c-0.97,0,-1.78,-0.17,-2.44,-0.52 c-0.66,-0.35,-1.16,-0.85,-1.5,-1.51 c-0.34,-0.66,-0.51,-1.47,-0.51,-2.42 l0,-7.45 c0,-0.95,0.17,-1.76,0.51,-2.42 c0.34,-0.66,0.84,-1.16,1.5,-1.51 c0.66,-0.34,1.47,-0.52,2.44,-0.52 l0.46,0 l0,-2.83 c0,-0.3,0.07,-0.55,0.22,-0.73 c0.15,-0.18,0.36,-0.27,0.64,-0.27 Z M11.58,3.06 c-0.19,0,-0.36,0.06,-0.49,0.18 c-0.13,0.12,-0.19,0.28,-0.19,0.48 c0,0.18,0.06,0.34,0.19,0.47 c0.13,0.13,0.29,0.19,0.49,0.19 l1.15,0 l0,4.24 l-0.99,0 c-0.19,0,-0.35,0.06,-0.48,0.18 c-0.13,0.12,-0.2,0.28,-0.2,0.47 c0,0.18,0.07,0.34,0.2,0.47 c0.13,0.13,0.29,0.19,0.48,0.19 l1.74,0 c0.24,0,0.42,-0.08,0.54,-0.23 c0.12,-0.16,0.18,-0.36,0.18,-0.61 l0,-4.71 l1.15,0 c0.19,0,0.36,-0.06,0.49,-0.19 c0.13,-0.13,0.19,-0.29,0.19,-0.47 c0,-0.19,-0.06,-0.35,-0.19,-0.48 c-0.13,-0.12,-0.29,-0.18,-0.49,-0.18 Z M13.11,11.47 c-0.34,0,-0.62,0.12,-0.86,0.35 c-0.24,0.24,-0.35,0.52,-0.35,0.86 c0,0.34,0.12,0.63,0.35,0.87 c0.24,0.24,0.52,0.35,0.86,0.35 c0.34,-0.0,0.63,-0.12,0.86,-0.35 c0.23,-0.24,0.35,-0.53,0.35,-0.87 c0,-0.34,-0.12,-0.62,-0.35,-0.86 c-0.23,-0.24,-0.52,-0.35,-0.86,-0.35 Z M13.11,11.47" fill="rgb(0,0,0)" transform="matrix(1,0,0,-1,-0.6917169744318201,18.862548828125)"/>
</svg>