<?xml version="1.0" encoding="UTF-8"?>
<svg width="25" height="25" viewBox="0 0 25 25" version="1.1" xmlns="http://www.w3.org/2000/svg" xmlns:xlink="http://www.w3.org/1999/xlink">
 <path d="M5.53,-3.24 l11.15,0 c1.02,-0.0,1.78,0.25,2.29,0.76 c0.51,0.51,0.76,1.26,0.76,2.26 l0,9.7 c0,1.0,-0.25,1.75,-0.76,2.26 c-0.51,0.51,-1.27,0.76,-2.29,0.76 l-2.71,0 l0,-1.57 l2.68,0 c0.48,0,0.85,-0.13,1.12,-0.39 c0.27,-0.26,0.4,-0.64,0.4,-1.15 l0,-9.53 c0,-0.51,-0.13,-0.89,-0.4,-1.15 c-0.27,-0.26,-0.64,-0.39,-1.12,-0.39 l-11.1,0 c-0.49,0,-0.86,0.13,-1.12,0.39 c-0.26,0.26,-0.39,0.64,-0.39,1.15 l0,9.53 c0,0.51,0.13,0.89,0.39,1.15 c0.26,0.26,0.63,0.39,1.12,0.39 l2.69,0 l0,1.57 l-2.71,0 c-1.02,0.0,-1.78,-0.25,-2.29,-0.75 c-0.51,-0.5,-0.76,-1.26,-0.76,-2.26 l0,-9.7 c0,-1.0,0.25,-1.76,0.76,-2.26 c0.51,-0.5,1.27,-0.75,2.29,-0.75 Z M11.1,3.16 c0.1,0,0.2,0.02,0.29,0.05 c0.09,0.04,0.18,0.1,0.28,0.2 l3.29,3.18 c0.16,0.15,0.23,0.32,0.23,0.51 c0,0.2,-0.07,0.36,-0.2,0.49 c-0.14,0.13,-0.3,0.19,-0.51,0.19 c-0.21,0,-0.39,-0.08,-0.52,-0.23 l-1.48,-1.57 l-0.65,-0.69 l0.06,1.46 l0,10.25 c0,0.21,-0.08,0.39,-0.23,0.53 c-0.15,0.15,-0.34,0.22,-0.55,0.22 c-0.21,0,-0.39,-0.07,-0.54,-0.22 c-0.15,-0.15,-0.23,-0.33,-0.23,-0.53 l0,-10.25 l0.06,-1.46 l-0.66,0.69 l-1.47,1.57 c-0.14,0.16,-0.31,0.23,-0.53,0.23 c-0.21,0,-0.38,-0.06,-0.51,-0.19 c-0.13,-0.13,-0.19,-0.29,-0.19,-0.49 c0,-0.19,0.07,-0.36,0.22,-0.51 l3.29,-3.18 c0.1,-0.1,0.2,-0.16,0.29,-0.2 c0.09,-0.04,0.18,-0.05,0.28,-0.05 Z M11.1,3.16" fill="rgb(0,0,0)" transform="matrix(1,0,0,-1,1.3934881036931817,19.75690252130682)"/>
</svg>