<?xml version="1.0" encoding="UTF-8"?>
<svg width="25" height="25" viewBox="0 0 25 25" version="1.1" xmlns="http://www.w3.org/2000/svg" xmlns:xlink="http://www.w3.org/1999/xlink">
 <path d="M11.66,-2.9 c1.35,0,2.63,0.26,3.83,0.78 c1.2,0.52,2.25,1.23,3.16,2.15 c0.91,0.91,1.63,1.97,2.15,3.16 c0.52,1.2,0.78,2.47,0.78,3.83 c0,1.35,-0.26,2.63,-0.78,3.83 c-0.52,1.2,-1.23,2.25,-2.15,3.16 c-0.91,0.91,-1.97,1.63,-3.17,2.15 c-1.2,0.52,-2.48,0.78,-3.83,0.78 c-1.35,0,-2.63,-0.26,-3.83,-0.78 c-1.2,-0.52,-2.25,-1.23,-3.16,-2.15 c-0.91,-0.91,-1.63,-1.97,-2.14,-3.16 c-0.52,-1.2,-0.78,-2.47,-0.78,-3.83 c0,-1.35,0.26,-2.63,0.78,-3.83 c0.52,-1.2,1.23,-2.25,2.15,-3.16 c0.91,-0.91,1.97,-1.63,3.16,-2.15 c1.2,-0.52,2.47,-0.78,3.83,-0.78 Z M9.91,1.4 c-0.21,0,-0.38,0.07,-0.52,0.2 c-0.14,0.13,-0.21,0.3,-0.21,0.51 c0,0.19,0.07,0.36,0.21,0.5 c0.14,0.14,0.32,0.21,0.52,0.21 l1.23,0 l0,4.58 l-1.07,0 c-0.2,0.0,-0.37,0.07,-0.52,0.2 c-0.14,0.13,-0.21,0.3,-0.21,0.51 c0,0.19,0.07,0.36,0.21,0.5 c0.14,0.14,0.31,0.21,0.52,0.21 l1.89,0 c0.26,0,0.46,-0.08,0.59,-0.25 c0.13,-0.17,0.2,-0.39,0.2,-0.66 l0,-5.08 l1.23,0 c0.21,0,0.38,-0.07,0.52,-0.21 c0.14,-0.14,0.21,-0.31,0.21,-0.5 c0,-0.21,-0.07,-0.38,-0.21,-0.51 c-0.14,-0.13,-0.32,-0.2,-0.52,-0.2 Z M11.57,10.48 c-0.36,0,-0.67,0.13,-0.93,0.38 c-0.26,0.26,-0.38,0.57,-0.38,0.93 c0,0.37,0.13,0.68,0.38,0.94 c0.26,0.26,0.57,0.38,0.93,0.38 c0.37,0,0.68,-0.13,0.93,-0.38 c0.25,-0.26,0.37,-0.57,0.37,-0.94 c-0.0,-0.36,-0.12,-0.67,-0.37,-0.93 c-0.25,-0.26,-0.56,-0.38,-0.93,-0.38 Z M11.57,10.48" fill="rgb(0,0,0)" transform="matrix(1,0,0,-1,0.84423828125,19.51873224431818)"/>
</svg>